<?xml version="1.0" encoding="UTF-8"?>
<svg version="1.1" xmlns="http://www.w3.org/2000/svg" width="276" height="278">
<path d="M0 0 C91.08 0 182.16 0 276 0 C276 91.74 276 183.48 276 278 C184.92 278 93.84 278 0 278 C0 186.26 0 94.52 0 0 Z " fill="#1C1817" transform="translate(0,0)"/>
<path d="M0 0 C0 23.76 0 47.52 0 72 C5.54506148 68.40919437 5.54506148 68.40919437 9.25 63.75 C10.703125 61.609375 10.703125 61.609375 12 60 C12.66 60 13.32 60 14 60 C14.185625 58.7625 14.185625 58.7625 14.375 57.5 C15.07102155 53.60227933 16.00880949 49.83260331 17 46 C14.36 46 11.72 46 9 46 C9.5691779 41.71947031 11.08009922 38.90496315 13.4375 35.3125 C14.05496094 34.35988281 14.67242187 33.40726563 15.30859375 32.42578125 C17 30 17 30 19 28 C19.46019531 26.84951172 19.46019531 26.84951172 19.9296875 25.67578125 C21.0462161 22.88445976 22.42631915 20.66166559 24.125 18.1875 C24.66382813 17.39730469 25.20265625 16.60710938 25.7578125 15.79296875 C26.16773438 15.20128906 26.57765625 14.60960937 27 14 C30.48470086 15.40121655 31.68653393 16.71005359 33.3125 20.0625 C35.56265945 24.38280615 38.24858938 27.9989213 41.28515625 31.79296875 C48 40.43507973 48 40.43507973 48 45 C45.03 45 42.06 45 39 45 C39.0825 45.9075 39.165 46.815 39.25 47.75 C39.20497809 58.89292155 32.81724624 69.98223664 25.625 78.125 C15.28014719 87.82207265 1.53551984 91.3922393 -12 94 C-12.92425781 94.21269531 -13.84851563 94.42539063 -14.80078125 94.64453125 C-20.79597048 96.00841227 -26.76532715 96.42073285 -32.8984375 96.75390625 C-35.41557025 96.95362837 -37.59203807 97.28235617 -40 98 C-40 98.66 -40 99.32 -40 100 C-38.02 100.495 -38.02 100.495 -36 101 C-36.33 114.53 -36.66 128.06 -37 142 C-36.34 142 -35.68 142 -35 142 C-34.01 143.98 -33.02 145.96 -32 148 C-29.8152993 146.22781007 -29.8152993 146.22781007 -29.75949097 143.97518921 C-29.76393219 143.14468048 -29.76837341 142.31417175 -29.77294922 141.45849609 C-29.77310028 140.51767181 -29.77325134 139.57684753 -29.77340698 138.60751343 C-29.78372955 137.58976837 -29.79405212 136.57202332 -29.8046875 135.5234375 C-29.8075174 134.48305328 -29.81034729 133.44266907 -29.81326294 132.37075806 C-29.82448296 129.03872306 -29.84959085 125.70695414 -29.875 122.375 C-29.88502744 120.11979554 -29.8941537 117.86458688 -29.90234375 115.609375 C-29.92442822 110.07282546 -29.95792361 104.53643173 -30 99 C-31.485 99.495 -31.485 99.495 -33 100 C-33 99.34 -33 98.68 -33 98 C-31.82824219 98.02320312 -30.65648437 98.04640625 -29.44921875 98.0703125 C-21.51276779 98.17849841 -13.94994526 98.21713035 -6.1640625 96.4375 C-4 96 -4 96 0 96 C0 112.5 0 129 0 146 C-6.02124064 147.80637219 -11.90905265 149.53366082 -18 151 C-16.41571031 152.58428969 -14.82144439 152.20842692 -12.625 152.25 C-4.11676866 152.15248445 3.18405298 150.06826829 10 145 C10.66 145 11.32 145 12 145 C12.268125 144.360625 12.53625 143.72125 12.8125 143.0625 C14 141 14 141 17 140 C18.05086948 137.23633753 18.11860688 134.60496259 18.09765625 131.671875 C18.09443359 130.87265625 18.09121094 130.0734375 18.08789062 129.25 C18.07951172 128.425 18.07113281 127.6 18.0625 126.75 C18.05573242 125.48929688 18.05573242 125.48929688 18.04882812 124.203125 C18.03707961 122.13538599 18.01914522 120.06768376 18 118 C25.41051603 124.99391121 29.33571433 132.39259582 29.6875 142.6875 C29.41161526 149.26163137 27.99602081 153.80517295 24 159 C23.39671875 159.83144531 22.7934375 160.66289062 22.171875 161.51953125 C12.71014249 172.32564661 -4.26885313 176.07246558 -18 177 C-45.72613522 178.52226036 -72.6925162 173.45330915 -98 162 C-98.73605469 161.69707031 -99.47210938 161.39414063 -100.23046875 161.08203125 C-122.95772805 151.60199049 -141.59882867 136.55356027 -152 114 C-153.93734109 107.96320236 -153.57767031 101.74117477 -151 96 C-145.60357835 85.57730837 -137.06370725 79.66989811 -126.125 76 C-121.94095154 74.67228525 -118.39782681 73.7324516 -114 74 C-115 77 -115 77 -117.875 78.875 C-121.19266015 81.1310089 -122.28351596 82.44081987 -124 86 C-125.07517019 94.04269467 -123.85552255 101.470259 -121 109 C-120.34 109 -119.68 109 -119 109 C-117.30859375 110.93359375 -117.30859375 110.93359375 -115.4375 113.4375 C-113.34532911 116.32692627 -113.34532911 116.32692627 -111 119 C-109.33382885 119.04063832 -107.66611905 119.042721 -106 119 C-105.99742188 118.18015625 -105.99484375 117.3603125 -105.9921875 116.515625 C-105.67692711 107.73036872 -105.67692711 107.73036872 -102.625 104.4375 C-94.8619742 101.35905873 -87.45822288 99.7071464 -79.1171875 99.2109375 C-77.01620719 99.2273807 -77.01620719 99.2273807 -76 98 C-74.1576663 97.92480271 -72.31250204 97.91684814 -70.46875 97.9375 C-68.78845703 97.94910156 -68.78845703 97.94910156 -67.07421875 97.9609375 C-64.69140625 97.98697917 -62.30859375 98.01302083 -59.92578125 98.0390625 C-58.24548828 98.05066406 -58.24548828 98.05066406 -56.53125 98.0625 C-55.49548828 98.07410156 -54.45972656 98.08570312 -53.39257812 98.09765625 C-51.04669665 98.27259032 -51.04669665 98.27259032 -50 97 C-55.79832741 96.95021909 -61.59652784 96.91410139 -67.39501953 96.89013672 C-69.3637916 96.8801364 -71.33254905 96.86653177 -73.30126953 96.84912109 C-76.14619581 96.8246083 -78.99092415 96.81345694 -81.8359375 96.8046875 C-82.70302338 96.79436493 -83.57010925 96.78404236 -84.46347046 96.77340698 C-90.51788855 96.77231833 -96.11014424 97.61413425 -102 99 C-102 99.66 -102 100.32 -102 101 C-102.99 101 -103.98 101 -105 101 C-105 88.46 -105 75.92 -105 63 C-102.03 62.01 -99.06 61.02 -96 60 C-94.48845489 59.47174776 -92.9786002 58.93854583 -91.47265625 58.39453125 C-90.74369141 58.13349609 -90.01472656 57.87246094 -89.26367188 57.60351562 C-87.76827697 57.06612881 -86.27350566 56.52700419 -84.77929688 55.98632812 C-79.21857378 54 -79.21857378 54 -77 54 C-77 63.57 -77 73.14 -77 83 C-73.7 83 -70.4 83 -67 83 C-67 68.48 -67 53.96 -67 39 C-64.03 38.01 -61.06 37.02 -58 36 C-56.05899567 35.32245687 -54.12082089 34.63666583 -52.1875 33.9375 C-51.29417969 33.61652344 -50.40085937 33.29554687 -49.48046875 32.96484375 C-47.02975344 32.07678813 -47.02975344 32.07678813 -44.98828125 30.87890625 C-43 30 -43 30 -38 30 C-38 46.83 -38 63.66 -38 81 C-34.7 81 -31.4 81 -28 81 C-28 56.91 -28 32.82 -28 8 C-22.72 6.35 -17.44 4.7 -12 3 C-5 0 -5 0 0 0 Z " fill="#E2C6A7" transform="translate(196,18)"/>
<path d="M0 0 C-1 3 -1 3 -3.875 4.875 C-7.19266015 7.1310089 -8.28351596 8.44081987 -10 12 C-11.07517019 20.04269467 -9.85552255 27.470259 -7 35 C-6.34 35 -5.68 35 -5 35 C-3.51953125 36.72265625 -3.51953125 36.72265625 -1.8125 39.0625 C16.29688516 62.87298789 47.09113784 74.12990127 75.875 78.25 C92.3019494 80.15513015 109.88695274 80.82136038 124 71 C124.66 71 125.32 71 126 71 C126.268125 70.360625 126.53625 69.72125 126.8125 69.0625 C128 67 128 67 131 66 C132.05086948 63.23633753 132.11860688 60.60496259 132.09765625 57.671875 C132.09443359 56.87265625 132.09121094 56.0734375 132.08789062 55.25 C132.07951172 54.425 132.07113281 53.6 132.0625 52.75 C132.05573242 51.48929688 132.05573242 51.48929688 132.04882812 50.203125 C132.03707961 48.13538599 132.01914522 46.06768376 132 44 C139.41051603 50.99391121 143.33571433 58.39259582 143.6875 68.6875 C143.41161526 75.26163137 141.99602081 79.80517295 138 85 C137.39671875 85.83144531 136.7934375 86.66289062 136.171875 87.51953125 C126.71014249 98.32564661 109.73114687 102.07246558 96 103 C68.27386478 104.52226036 41.3074838 99.45330915 16 88 C15.26394531 87.69707031 14.52789062 87.39414063 13.76953125 87.08203125 C-8.95772805 77.60199049 -27.59882867 62.55356027 -38 40 C-39.93734109 33.96320236 -39.57767031 27.74117477 -37 22 C-31.60357835 11.57730837 -23.06370725 5.66989811 -12.125 2 C-7.94095154 0.67228525 -4.39782681 -0.2675484 0 0 Z " fill="#E5C9AA" transform="translate(82,92)"/>
<path d="M0 0 C20.46 0 40.92 0 62 0 C62 0.33 62 0.66 62 1 C61.03578125 1.06058594 60.0715625 1.12117188 59.078125 1.18359375 C57.81484375 1.26738281 56.5515625 1.35117188 55.25 1.4375 C53.99703125 1.51871094 52.7440625 1.59992188 51.453125 1.68359375 C48.81682447 1.92515522 46.51962706 2.24283934 44 3 C44 3.66 44 4.32 44 5 C45.32 5.33 46.64 5.66 48 6 C47.67 19.53 47.34 33.06 47 47 C47.66 47 48.32 47 49 47 C49.99 48.98 50.98 50.96 52 53 C54.1847007 51.22781007 54.1847007 51.22781007 54.24050903 48.97518921 C54.23606781 48.14468048 54.23162659 47.31417175 54.22705078 46.45849609 C54.22689972 45.51767181 54.22674866 44.57684753 54.22659302 43.60751343 C54.21627045 42.58976837 54.20594788 41.57202332 54.1953125 40.5234375 C54.1924826 39.48305328 54.18965271 38.44266907 54.18673706 37.37075806 C54.17551704 34.03872306 54.15040915 30.70695414 54.125 27.375 C54.11497256 25.11979554 54.1058463 22.86458688 54.09765625 20.609375 C54.07557178 15.07282546 54.04207639 9.53643173 54 4 C53.01 4.33 52.02 4.66 51 5 C51 4.34 51 3.68 51 3 C52.17175781 3.02320312 53.34351563 3.04640625 54.55078125 3.0703125 C62.48723221 3.17849841 70.05005474 3.21713035 77.8359375 1.4375 C80 1 80 1 84 1 C84 17.5 84 34 84 51 C77.97875936 52.80637219 72.09094735 54.53366082 66 56 C67.98 56.66 69.96 57.32 72 58 C72 58.33 72 58.66 72 59 C38.31592022 60.12280266 4.37303021 51.846848 -22 30 C-23.38567339 28.37658853 -24.73953318 26.72243402 -26 25 C-24.68 24.67 -23.36 24.34 -22 24 C-21.99742188 23.18015625 -21.99484375 22.3603125 -21.9921875 21.515625 C-21.67692711 12.73036872 -21.67692711 12.73036872 -18.625 9.4375 C-10.8619742 6.35905873 -3.45822288 4.7071464 4.8828125 4.2109375 C6.98379281 4.2273807 6.98379281 4.2273807 8 3 C9.8423337 2.92480271 11.68749796 2.91684814 13.53125 2.9375 C15.21154297 2.94910156 15.21154297 2.94910156 16.92578125 2.9609375 C19.30859375 2.98697917 21.69140625 3.01302083 24.07421875 3.0390625 C25.75451172 3.05066406 25.75451172 3.05066406 27.46875 3.0625 C29.02239258 3.07990234 29.02239258 3.07990234 30.60742188 3.09765625 C32.95330335 3.27259032 32.95330335 3.27259032 34 2 C22.78 1.67 11.56 1.34 0 1 C0 0.67 0 0.34 0 0 Z " fill="#261E1A" transform="translate(112,113)"/>
<path d="M0 0 C0 16.5 0 33 0 50 C-16 53 -16 53 -28 53 C-28 36.83 -28 20.66 -28 4 C-4 0 -4 0 0 0 Z " fill="#DCC1A3" transform="translate(196,114)"/>
<path d="M0 0 C9.24 0 18.48 0 28 0 C28 15.84 28 31.68 28 48 C17.87106447 46.87456272 17.87106447 46.87456272 14.47265625 45.84375 C13.37920898 45.51697266 13.37920898 45.51697266 12.26367188 45.18359375 C11.53728516 44.95800781 10.81089844 44.73242188 10.0625 44.5 C9.30904297 44.27441406 8.55558594 44.04882812 7.77929688 43.81640625 C2.34250992 42.17125496 2.34250992 42.17125496 0 41 C0 27.47 0 13.94 0 0 Z " fill="#D7BA98" transform="translate(130,118)"/>
<path d="M0 0 C3.1502414 4.07678299 3.43238252 7.3558433 3.4375 12.4375 C3.45683594 13.71496094 3.47617188 14.99242187 3.49609375 16.30859375 C2.78883668 21.5712546 0.80229504 24.5563404 -3.31640625 27.85546875 C-6.6810313 29.2904544 -9.28703751 29.36402661 -12.9375 29.3125 C-14.12214844 29.30863281 -15.30679688 29.30476563 -16.52734375 29.30078125 C-20.03352327 28.99709641 -22.77300554 28.39443848 -26 27 C-30.02505424 20.96241863 -29.67077454 14.04313263 -29 7 C-27.52537975 2.72360128 -25.93666944 0.26656725 -22 -2 C-14.67744905 -4.27635823 -6.57565614 -3.97279225 0 0 Z " fill="#E5CEB3" transform="translate(84,230)"/>
<path d="M0 0 C0 12.21 0 24.42 0 37 C-9.43614236 33.22554306 -21.49083292 27.03989428 -28 19 C-28.80055897 14.93647311 -28.63028682 11.08540458 -28 7 C-25.0310068 2.80245789 -20.18659449 1.90150965 -15.40234375 0.515625 C-10.32334756 -0.25409658 -5.13699071 0 0 0 Z " fill="#C8AE8F" transform="translate(120,118)"/>
<path d="M0 0 C3.196875 -0.061875 6.39375 -0.12375 9.6875 -0.1875 C11.18543091 -0.22846802 11.18543091 -0.22846802 12.71362305 -0.27026367 C17.64022382 -0.31642729 21.03086436 -0.25575371 25 3 C25.58910156 3.46664062 26.17820312 3.93328125 26.78515625 4.4140625 C28.81493292 7.06386741 28.45846729 9.56513825 28.375 12.7890625 C27.84224946 15.93007088 26.04178505 17.62889478 24 20 C24.10043365 24.01734613 25.91861641 26.65168726 28 30 C28 30.66 28 31.32 28 32 C25.36 32 22.72 32 20 32 C19.67 31.01 19.34 30.02 19 29 C18.34 29 17.68 29 17 29 C16.34 27.02 15.68 25.04 15 23 C13.02 22.67 11.04 22.34 9 22 C9 25.3 9 28.6 9 32 C6.03 32 3.06 32 0 32 C0 21.44 0 10.88 0 0 Z " fill="#CCB8A1" transform="translate(100,227)"/>
<path d="M0 0 C9.63897067 3.04888807 14.30415658 11.2751785 19 20 C19 20.99 19 21.98 19 23 C16.03 23 13.06 23 10 23 C10.12375 24.36125 10.12375 24.36125 10.25 25.75 C10.20413017 37.10278218 3.69676411 48.37157418 -3.9375 56.375 C-7.38814057 59.63393832 -10.66774483 62.04623786 -15 64 C-15.99 63.67 -16.98 63.34 -18 63 C-17.97746049 57.92860986 -17.74258406 54.17130791 -14.0625 50.4375 C-11 48 -11 48 -9 48 C-8.5359375 46.576875 -8.5359375 46.576875 -8.0625 45.125 C-7 42 -7 42 -6 40 C-5.34 40 -4.68 40 -4 40 C-3.855625 38.72125 -3.71125 37.4425 -3.5625 36.125 C-3.29357254 33.74307106 -3.07773654 32.15547309 -2 30 C-1.77588512 27.75148507 -1.60697706 25.49736931 -1.46484375 23.2421875 C-1.40037804 22.24761032 -1.40037804 22.24761032 -1.33460999 21.23294067 C-1.19819167 19.11386277 -1.06777719 16.99446345 -0.9375 14.875 C-0.8460981 13.43877689 -0.75430607 12.00257856 -0.66210938 10.56640625 C-0.43687752 7.0445471 -0.21702886 3.52237524 0 0 Z " fill="#EDD5B8" transform="translate(225,40)"/>
<path d="M0 0 C2.0078125 0.5234375 2.0078125 0.5234375 3.54296875 2.41796875 C5.56260348 6.69959437 7.06673531 11.10107392 8.5703125 15.5859375 C9.17331062 17.36932686 9.77869488 19.15191159 10.38671875 20.93359375 C10.6504126 21.71871338 10.91410645 22.50383301 11.18579102 23.31274414 C11.96290639 25.54567647 11.96290639 25.54567647 13.10913086 27.62280273 C14.0078125 29.5234375 14.0078125 29.5234375 14.0078125 32.5234375 C11.3678125 32.5234375 8.7278125 32.5234375 6.0078125 32.5234375 C5.3478125 30.5434375 4.6878125 28.5634375 4.0078125 26.5234375 C0.0478125 26.5234375 -3.9121875 26.5234375 -7.9921875 26.5234375 C-8.3221875 28.5034375 -8.6521875 30.4834375 -8.9921875 32.5234375 C-11.6321875 32.5234375 -14.2721875 32.5234375 -16.9921875 32.5234375 C-16.44535126 27.33516198 -15.17441357 22.95382826 -13.1171875 18.1484375 C-11.33323698 13.85525823 -9.60604078 9.57651932 -8.1796875 5.1484375 C-6.41322632 -0.24391767 -5.51628032 0.38675028 0 0 Z " fill="#E1CCB6" transform="translate(256.9921875,226.4765625)"/>
<path d="M0 0 C4.29 0 8.58 0 13 0 C13 14.19 13 28.38 13 43 C3 42 3 42 0 40 C-0.266487 36.94924916 -0.34757146 34.10373821 -0.29296875 31.0546875 C-0.28872391 30.1696756 -0.28447906 29.2846637 -0.28010559 28.37283325 C-0.26328259 25.53991555 -0.22562425 22.70770348 -0.1875 19.875 C-0.17245782 17.95704151 -0.15876861 16.03907189 -0.14648438 14.12109375 C-0.11336727 9.41378969 -0.06156055 4.70701456 0 0 Z " fill="#EFD4B5" transform="translate(131,119)"/>
<path d="M0 0 C0 7.92 0 15.84 0 24 C3.465 23.505 3.465 23.505 7 23 C8.8115721 22.9383819 10.62505032 22.91267192 12.4375 22.9375 C13.73494141 22.95103516 13.73494141 22.95103516 15.05859375 22.96484375 C15.69925781 22.97644531 16.33992188 22.98804687 17 23 C16.01 25.475 16.01 25.475 15 28 C11.04 28.33 7.08 28.66 3 29 C3 29.66 3 30.32 3 31 C0.89679937 31.50404808 -1.20759791 32.00310508 -3.3125 32.5 C-4.48425781 32.7784375 -5.65601562 33.056875 -6.86328125 33.34375 C-10 34 -10 34 -13 34 C-13 23.11 -13 12.22 -13 1 C-9 0 -9 0 0 0 Z " fill="#ECD1B4" transform="translate(105,79)"/>
<path d="M0 0 C8.91 0 17.82 0 27 0 C27 2.31 27 4.62 27 7 C20.73 7 14.46 7 8 7 C8 9.31 8 11.62 8 14 C12.62 14 17.24 14 22 14 C22 16.31 22 18.62 22 21 C17.71 21 13.42 21 9 21 C9 24.63 9 28.26 9 32 C6.03 32 3.06 32 0 32 C0 21.44 0 10.88 0 0 Z " fill="#D5BFA7" transform="translate(17,227)"/>
<path d="M0 0 C2.64 0 5.28 0 8 0 C8.7933855 2.04099935 9.5846303 4.0828309 10.375 6.125 C10.81585938 7.26195312 11.25671875 8.39890625 11.7109375 9.5703125 C12.88454703 12.69282513 13.96842774 15.82815631 15 19 C15.66 19 16.32 19 17 19 C17.18175781 18.45472656 17.36351562 17.90945312 17.55078125 17.34765625 C18.0786459 15.76406231 18.60734902 14.18074771 19.13671875 12.59765625 C19.70808987 10.87837212 20.27329331 9.15702486 20.83203125 7.43359375 C21.09371094 6.63050781 21.35539062 5.82742187 21.625 5 C21.86476562 4.2575 22.10453125 3.515 22.3515625 2.75 C23 1 23 1 24 0 C26.67058851 -0.14115161 29.32432238 -0.04247107 32 0 C31.3514968 4.18792425 29.93225807 7.64828091 28.1875 11.5 C25.21617512 18.19399865 22.99200654 24.9459533 21 32 C18.03 32 15.06 32 12 32 C8.99026529 26.2263588 6.52903065 20.43089725 4.3125 14.3125 C3.85133789 13.07016602 3.85133789 13.07016602 3.38085938 11.80273438 C1.9512476 7.89554596 0.63107984 4.13146935 0 0 Z " fill="#ECD3B9" transform="translate(203,227)"/>
<path d="M0 0 C4.29 0.33 8.58 0.66 13 1 C13 1.33 13 1.66 13 2 C10.36 2 7.72 2 5 2 C5 18.17 5 34.34 5 51 C10.94 50.67 16.88 50.34 23 50 C20.4345406 52.5654594 18.52313332 52.54046087 15 53 C16.98 53.66 18.96 54.32 21 55 C21 55.33 21 55.66 21 56 C-0.84467156 56.72815572 -20.41599236 53.3316613 -41 46 C-40.52949219 45.58105469 -40.05898437 45.16210938 -39.57421875 44.73046875 C-37.24464132 42.16966775 -36.81138497 39.30795411 -36 36 C-35.67 36 -35.34 36 -35 36 C-34.67 24.78 -34.34 13.56 -34 2 C-33.67 2 -33.34 2 -33 2 C-33 15.53 -33 29.06 -33 43 C-23.71841268 45.531342 -14.36483754 47.79650881 -5 50 C-5 34.16 -5 18.32 -5 2 C-4.34 2.33 -3.68 2.66 -3 3 C-3.33 16.53 -3.66 30.06 -4 44 C-3.34 44 -2.68 44 -2 44 C-1.01 45.98 -0.02 47.96 1 50 C3.1847007 48.22781007 3.1847007 48.22781007 3.24050903 45.97518921 C3.23606781 45.14468048 3.23162659 44.31417175 3.22705078 43.45849609 C3.22682419 42.04725967 3.22682419 42.04725967 3.22659302 40.60751343 C3.21627045 39.58976837 3.20594788 38.57202332 3.1953125 37.5234375 C3.1924826 36.48305328 3.18965271 35.44266907 3.18673706 34.37075806 C3.17551704 31.03872306 3.15040915 27.70695414 3.125 24.375 C3.11497256 22.11979554 3.1058463 19.86458688 3.09765625 17.609375 C3.07557178 12.07282546 3.04207639 6.53643173 3 1 C2.01 1.33 1.02 1.66 0 2 C0 1.34 0 0.68 0 0 Z " fill="#2F271F" transform="translate(163,116)"/>
<path d="M0 0 C0 9.57 0 19.14 0 29 C3.3 29 6.6 29 10 29 C10 29.33 10 29.66 10 30 C2.08 30.33 -5.84 30.66 -14 31 C-14 23.08 -14 15.16 -14 7 C-15.65 7 -17.3 7 -19 7 C-16.27136433 4.27136433 -13.08993105 3.52914606 -9.5 2.375 C-8.81035156 2.14554687 -8.12070313 1.91609375 -7.41015625 1.6796875 C-2.28111049 0 -2.28111049 0 0 0 Z " fill="#D9BD9D" transform="translate(119,72)"/>
<path d="M0 0 C9.24 0 18.48 0 28 0 C28 2.31 28 4.62 28 7 C24.7 7 21.4 7 18 7 C18 15.25 18 23.5 18 32 C15.36 32 12.72 32 10 32 C10 23.75 10 15.5 10 7 C6.7 7 3.4 7 0 7 C0 4.69 0 2.38 0 0 Z " fill="#DBC6AE" transform="translate(141,227)"/>
<path d="M0 0 C3.39716777 -0.13516583 6.78894608 -0.23419231 10.1875 -0.3125 C11.14720703 -0.35439453 12.10691406 -0.39628906 13.09570312 -0.43945312 C17.8064885 -0.5209546 20.21539591 -0.5591768 24.140625 2.23828125 C26.53896858 5.80052686 26.65184929 7.70110098 26.4453125 11.859375 C25.80932194 14.91659279 24.00539998 16.67114841 22 19 C22.10043365 23.01734613 23.91861641 25.65168726 26 29 C26 29.66 26 30.32 26 31 C23.36 31 20.72 31 18 31 C17.67 30.01 17.34 29.02 17 28 C16.34 28 15.68 28 15 28 C14.67 26.02 14.34 24.04 14 22 C15.32 22 16.64 22 18 22 C18 23.65 18 25.3 18 27 C18.99 27.33 19.98 27.66 21 28 C20.67 27.401875 20.34 26.80375 20 26.1875 C19 24 19 24 19 21 C18.34 21 17.68 21 17 21 C15.99103844 17.86100848 16.16872042 16.14038951 17 13 C17.03845443 11.00036972 17.04544281 8.99948367 17 7 C13.37 6.67 9.74 6.34 6 6 C5.67 8.31 5.34 10.62 5 13 C4.01 13.33 3.02 13.66 2 14 C2 13.34 2 12.68 2 12 C1.34 12 0.68 12 0 12 C0 8.04 0 4.08 0 0 Z " fill="#F1D9BC" transform="translate(102,228)"/>
<path d="M0 0 C3.875 0.875 3.875 0.875 5 2 C5.82015327 11.18571658 5.66446981 18.42008809 0 26 C-0.61875 27.010625 -1.2375 28.02125 -1.875 29.0625 C-4 31 -4 31 -7.75 31.3125 C-8.8225 31.209375 -9.895 31.10625 -11 31 C-13.27678571 22.96428571 -13.27678571 22.96428571 -12 19 C-11.01 19 -10.02 19 -9 19 C-9 18.34 -9 17.68 -9 17 C-8.34 17 -7.68 17 -7 17 C-6.67 15.68 -6.34 14.36 -6 13 C-5.34 13 -4.68 13 -4 13 C-3.51891725 11.58398286 -3.04021859 10.16715563 -2.5625 8.75 C-2.29566406 7.96109375 -2.02882812 7.1721875 -1.75390625 6.359375 C-1.08045292 4.25178012 -0.50849405 2.15246027 0 0 Z " fill="#F3D8B9" transform="translate(220,151)"/>
<path d="M0 0 C1.25838557 2.51677113 1.20818973 4.41293288 1.31640625 7.2265625 C1.37924805 8.7734375 1.37924805 8.7734375 1.44335938 10.3515625 C1.48267578 11.43179688 1.52199219 12.51203125 1.5625 13.625 C1.60568359 14.71296875 1.64886719 15.8009375 1.69335938 16.921875 C1.7996453 19.6144517 1.90168057 22.30712253 2 25 C-1 26 -1 26 -2.90234375 25.14453125 C-3.57394531 24.70496094 -4.24554688 24.26539063 -4.9375 23.8125 C-5.60652344 23.38582031 -6.27554688 22.95914063 -6.96484375 22.51953125 C-12.76590807 18.18821835 -12.76590807 18.18821835 -13.56640625 14.125 C-13.55580742 5.64593836 -13.55580742 5.64593836 -10.6875 2.3125 C-6.90776248 0.46658168 -4.16678853 -0.11261591 0 0 Z " fill="#EFD5B9" transform="translate(105,120)"/>
<path d="M0 0 C3.1837783 3.02834131 5.7646904 5.82733741 7.875 9.6875 C8.30554688 10.45449219 8.73609375 11.22148437 9.1796875 12.01171875 C9.45039063 12.66785156 9.72109375 13.32398438 10 14 C9.67 14.66 9.34 15.32 9 16 C8.01 15.67 7.02 15.34 6 15 C5.896875 15.845625 5.79375 16.69125 5.6875 17.5625 C4.9171146 21.41442701 3.63725486 24.44075031 2 28 C1.34 28 0.68 28 0 28 C-0.33 29.32 -0.66 30.64 -1 32 C-1.66 32 -2.32 32 -3 32 C-3 32.66 -3 33.32 -3 34 C-3.99 34 -4.98 34 -6 34 C-6 34.66 -6 35.32 -6 36 C-7.4317616 36.69937202 -8.87067032 37.38412718 -10.3125 38.0625 C-11.11300781 38.44535156 -11.91351563 38.82820313 -12.73828125 39.22265625 C-15 40 -15 40 -18 39 C-18.33 38.34 -18.66 37.68 -19 37 C-18.01 36.34 -17.02 35.68 -16 35 C-17.32 34.34 -18.64 33.68 -20 33 C-18.60470871 32.37379084 -17.20873879 31.74909369 -15.8125 31.125 C-14.99265625 30.75632813 -14.1728125 30.38765625 -13.328125 30.0078125 C-11 29 -11 29 -8.0625 28 C-5.48656899 26.75106375 -5.14940753 25.54511668 -4 23 C-3.01 22.67 -2.02 22.34 -1 22 C0.05086948 19.23633753 0.11860688 16.60496259 0.09765625 13.671875 C0.09282227 12.47304687 0.09282227 12.47304687 0.08789062 11.25 C0.07951172 10.425 0.07113281 9.6 0.0625 8.75 C0.05798828 7.90953125 0.05347656 7.0690625 0.04882812 6.203125 C0.03707961 4.13538599 0.01914522 2.06768376 0 0 Z " fill="#DDC0A1" transform="translate(214,136)"/>
<path d="M0 0 C0.76441406 0.01933594 1.52882813 0.03867188 2.31640625 0.05859375 C3.45916016 0.06052734 3.45916016 0.06052734 4.625 0.0625 C7.49186255 0.61401082 8.85122088 1.39111993 10.87890625 3.49609375 C11.82147021 8.29055297 11.33305355 13.04849922 9.87890625 17.68359375 C7.87890625 19.49609375 7.87890625 19.49609375 4.00390625 20.12109375 C0.8222896 19.88628809 -0.29496183 19.3874262 -3.12109375 17.62109375 C-5.85834173 13.34414379 -6.08962176 9.45979982 -5.12109375 4.49609375 C-3.67023175 1.85651927 -2.97382398 0.69553526 0 0 Z " fill="#1B1615" transform="translate(68.12109375,233.50390625)"/>
<path d="M0 0 C2.64 0 5.28 0 8 0 C7.51015625 0.40347656 7.0203125 0.80695313 6.515625 1.22265625 C4.58161078 3.49063685 4.6555701 4.48656577 4.75 7.4375 C4.77449219 8.40042969 4.79898438 9.36335937 4.82421875 10.35546875 C4.96204674 13.21310234 5.11146834 16.06924228 5.26953125 18.92578125 C5.3169043 19.80113525 5.36427734 20.67648926 5.41308594 21.57836914 C5.51101074 23.32933498 5.61684629 25.07988036 5.73144531 26.82983398 C6.0211461 31.73796003 5.8830478 36.15958985 5 41 C5.66 41 6.32 41 7 41 C7 41.66 7 42.32 7 43 C8.98 43 10.96 43 13 43 C13 44.32 13 45.64 13 47 C8.71 47 4.42 47 0 47 C0 31.49 0 15.98 0 0 Z " fill="#EBD0B0" transform="translate(169,119)"/>
<path d="M0 0 C2.64 0 5.28 0 8 0 C8 10.56 8 21.12 8 32 C5.36 32 2.72 32 0 32 C0 21.44 0 10.88 0 0 Z " fill="#E0C9B1" transform="translate(182,227)"/>
<path d="M0 0 C2.85338956 -0.23388439 5.20407827 -0.41994081 8 0 C11.75154135 3.75154135 11.68048382 8.94283015 12 14 C10.02 14.33 8.04 14.66 6 15 C5.67 14.34 5.34 13.68 5 13 C4.34 13 3.68 13 3 13 C2.608125 13.9075 2.21625 14.815 1.8125 15.75 C-0.0787372 19.14118394 -1.8554673 20.79032837 -5 23 C-5.93423645 19.98968256 -6.04449911 19.13349732 -5 16 C-4.01 15.34 -3.02 14.68 -2 14 C-2.33 13.67 -2.66 13.34 -3 13 C-3.41199125 7.7471116 -2.65673037 4.53858105 0 0 Z " fill="#EAD3B9" transform="translate(251,227)"/>
<path d="M0 0 C-1 3 -1 3 -3.875 4.875 C-7.23743758 7.16145755 -8.46198172 8.2763768 -10 12 C-10.52115705 15.32620826 -10.81077962 18.63970699 -11 22 C-11.33 22 -11.66 22 -12 22 C-12 19.69 -12 17.38 -12 15 C-12.99 15.33 -13.98 15.66 -15 16 C-15 14.68 -15 13.36 -15 12 C-18.35595828 12.59927826 -20.37801226 13.84622436 -23 16 C-23 14.68 -23 13.36 -23 12 C-23.763125 12.350625 -24.52625 12.70125 -25.3125 13.0625 C-28 14 -28 14 -31 13 C-22.39463219 5.79009724 -11.70087256 -0.71184016 0 0 Z " fill="#DBC2A3" transform="translate(82,92)"/>
<path d="M0 0 C0.66 0 1.32 0 2 0 C2 0.99 2 1.98 2 3 C4.475 3.99 4.475 3.99 7 5 C7.10883596 7.37625177 7.18766696 9.74743976 7.25 12.125 C7.30027344 13.12273437 7.30027344 13.12273437 7.3515625 14.140625 C7.45236898 19.28175552 6.24460291 22.06679432 3 26 C-0.6441774 28.4294516 -2.71241272 28.16179575 -7 28 C-7.33 26.68 -7.66 25.36 -8 24 C-7.01 24 -6.02 24 -5 24 C-5 24.99 -5 25.98 -5 27 C-4.34 27 -3.68 27 -3 27 C-3.33 26.01 -3.66 25.02 -4 24 C-2.6875 21.3125 -2.6875 21.3125 -1 19 C-0.34 19 0.32 19 1 19 C0.61855973 14.57328527 0.21737725 10.35775921 -1.1875 6.125 C-1.455625 5.09375 -1.72375 4.0625 -2 3 C-1.34 2.01 -0.68 1.02 0 0 Z " fill="#EAD3B8" transform="translate(80,230)"/>
<path d="M0 0 C0.33 0 0.66 0 1 0 C1 10.56 1 21.12 1 32 C6.94 30.515 6.94 30.515 13 29 C14.32 29 15.64 29 17 29 C17 28.34 17 27.68 17 27 C19.31 27 21.62 27 24 27 C23.34 27.66 22.68 28.32 22 29 C28.9903233 30.01942215 35.94442055 30.31599923 43 30.5625 C44.15628906 30.60568359 45.31257813 30.64886719 46.50390625 30.69335938 C49.33583854 30.79867917 52.16784747 30.90081087 55 31 C55 31.33 55 31.66 55 32 C54.06430176 32.01458252 53.12860352 32.02916504 52.16455078 32.04418945 C27.4184313 32.329295 27.4184313 32.329295 3 36 C3 36.66 3 37.32 3 38 C2.01 38 1.02 38 0 38 C0 25.46 0 12.92 0 0 Z " fill="#AA957D" transform="translate(91,81)"/>
<path d="M0 0 C1.32 0 2.64 0 4 0 C3.67 0.99 3.34 1.98 3 3 C1.84140121 11.34947432 1.79557755 19.78558818 1.68359375 28.19921875 C1.66281265 29.51541702 1.64203156 30.8316153 1.62062073 32.18769836 C1.56603143 35.64809526 1.51635011 39.10854494 1.46777344 42.56903076 C1.41709027 46.11572844 1.36165132 49.66235165 1.30664062 53.20898438 C1.19983428 60.13925812 1.09822494 67.06959945 1 74 C-2 75 -2 75 -11 74 C-11 57.17 -11 40.34 -11 23 C-12.65 23.33 -14.3 23.66 -16 24 C-15.67 23.34 -15.34 22.68 -15 22 C-13.35 22 -11.7 22 -10 22 C-10 38.83 -10 55.66 -10 73 C-6.7 73 -3.4 73 0 73 C0 48.91 0 24.82 0 0 Z " fill="#AB9986" transform="translate(168,26)"/>
<path d="M0 0 C9.24 0 18.48 0 28 0 C28 15.84 28 31.68 28 48 C27.67 48 27.34 48 27 48 C27 32.49 27 16.98 27 1 C26.67 1.99 26.34 2.98 26 4 C22.04 4 18.08 4 14 4 C14 3.01 14 2.02 14 1 C9.71 1 5.42 1 1 1 C1 14.2 1 27.4 1 41 C0.67 41 0.34 41 0 41 C0 27.47 0 13.94 0 0 Z " fill="#B8A891" transform="translate(130,118)"/>
<path d="M0 0 C3 1 3 1 4.38671875 3.6171875 C4.81597656 4.69226563 5.24523437 5.76734375 5.6875 6.875 C6.34298828 8.47988281 6.34298828 8.47988281 7.01171875 10.1171875 C8 13 8 13 8 16 C5.36 16 2.72 16 0 16 C-1.4606285 13.35261084 -2 12.10551666 -2 9 C-5.3 9 -8.6 9 -12 9 C-11.67 7.68 -11.34 6.36 -11 5 C-10.37351563 4.89042969 -9.74703125 4.78085938 -9.1015625 4.66796875 C-7.87566406 4.43013672 -7.87566406 4.43013672 -6.625 4.1875 C-5.81289063 4.03667969 -5.00078125 3.88585937 -4.1640625 3.73046875 C-1.64179359 3.12455058 -1.64179359 3.12455058 0 0 Z " fill="#F3D9BC" transform="translate(263,243)"/>
<path d="M0 0 C-0.66 2.31 -1.32 4.62 -2 7 C-2.99 6.34 -3.98 5.68 -5 5 C-5.66 6.32 -6.32 7.64 -7 9 C-7.33 8.34 -7.66 7.68 -8 7 C-8.99 7.33 -9.98 7.66 -11 8 C-10.98952637 8.93158936 -10.97905273 9.86317871 -10.96826172 10.82299805 C-10.93378146 14.34369477 -10.90891033 17.86420707 -10.89013672 21.38500977 C-10.88019839 22.89675767 -10.86664302 24.40848699 -10.84912109 25.92016602 C-10.74085144 35.51476826 -11.1680545 44.54596334 -13 54 C-13.33 54 -13.66 54 -14 54 C-14.02496148 48.93205106 -14.0429822 43.86413894 -14.05493164 38.79614258 C-14.05992009 37.07673518 -14.06671324 35.35733194 -14.07543945 33.63793945 C-14.20595687 7.23503442 -14.20595687 7.23503442 -11 2 C-8.90625 0.91796875 -8.90625 0.91796875 -6.5 0.1875 C-5.30890625 -0.19341797 -5.30890625 -0.19341797 -4.09375 -0.58203125 C-2 -1 -2 -1 0 0 Z " fill="#DBBDA1" transform="translate(183,23)"/>
<path d="M0 0 C1.0723969 3.68636433 1.04183175 6.97314114 0.9375 10.78125 C1.00104326 13.03703579 1.25285087 14.87062498 2 17 C2.66 17.33 3.32 17.66 4 18 C3.67 18.99 3.34 19.98 3 21 C3.763125 20.67 4.52625 20.34 5.3125 20 C10.25174651 18.66054332 14.91463109 18.83712342 20 19 C21.54906648 15.50515489 22.32051778 12.49352779 22.625 8.6875 C22.69976562 7.80449219 22.77453125 6.92148438 22.8515625 6.01171875 C22.90054688 5.34785156 22.94953125 4.68398437 23 4 C25 6 25 6 25.1953125 8.1640625 C25.17210938 8.97617188 25.14890625 9.78828125 25.125 10.625 C25.10695313 11.44226563 25.08890625 12.25953125 25.0703125 13.1015625 C25.04710938 13.72804687 25.02390625 14.35453125 25 15 C24.34 15 23.68 15 23 15 C21.52952664 18.91063224 21.52952664 18.91063224 21 23 C20.34 23 19.68 23 19 23 C19 22.01 19 21.02 19 20 C18.34 20.66 17.68 21.32 17 22 C17 22.33 17 22.66 17 23 C18.65 23.33 20.3 23.66 22 24 C22 24.33 22 24.66 22 25 C19.79194476 25.0544452 17.58349446 25.09299283 15.375 25.125 C14.14523438 25.14820313 12.91546875 25.17140625 11.6484375 25.1953125 C8.00660758 25.00035372 5.33063018 24.46449768 2 23 C-2.03832228 16.94251657 -1.49653859 10.06612608 -1 3 C-0.67 2.01 -0.34 1.02 0 0 Z " fill="#D7C1AA" transform="translate(56,234)"/>
<path d="M0 0 C0 23.1 0 46.2 0 70 C-0.66 69.67 -1.32 69.34 -2 69 C-1.99666908 68.12915016 -1.99666908 68.12915016 -1.99327087 67.2407074 C-1.97091256 61.12344995 -1.95596795 55.00620436 -1.94506836 48.88891602 C-1.94008167 46.61482267 -1.93328991 44.34073245 -1.92456055 42.06665039 C-1.87821211 29.66980599 -1.87915434 17.354575 -3 5 C-4.32 5 -5.64 5 -7 5 C-6.6875 3.0625 -6.6875 3.0625 -6 1 C-3 0 -3 0 0 0 Z " fill="#E5CDB4" transform="translate(195,19)"/>
<path d="M0 0 C4 3 4 3 4.53125 5.0859375 C4.45661804 10.55272857 3.64438264 12.76781371 0 17 C0.10043365 21.01734613 1.91861641 23.65168726 4 27 C4 27.66 4 28.32 4 29 C1.36 29 -1.28 29 -4 29 C-4.33 28.01 -4.66 27.02 -5 26 C-5.66 26 -6.32 26 -7 26 C-7.33 24.02 -7.66 22.04 -8 20 C-6.68 20 -5.36 20 -4 20 C-4 21.65 -4 23.3 -4 25 C-3.01 25.33 -2.02 25.66 -1 26 C-1.33 25.401875 -1.66 24.80375 -2 24.1875 C-3 22 -3 22 -3 19 C-3.66 19 -4.32 19 -5 19 C-6.01333399 15.84740535 -5.81126663 14.15492577 -5 11 C-4.96111651 8.66699067 -4.9551365 6.33290199 -5 4 C-4.34 4 -3.68 4 -3 4 C-2.67 6.64 -2.34 9.28 -2 12 C-0.35 11.67 1.3 11.34 3 11 C2.01 7.37 1.02 3.74 0 0 Z " fill="#E0CBAE" transform="translate(124,230)"/>
<path d="M0 0 C0.33 0 0.66 0 1 0 C0.99097656 0.79664062 0.98195313 1.59328125 0.97265625 2.4140625 C1.01306189 8.50446233 1.01306189 8.50446233 3.34375 13.95703125 C5.14992876 15.51280796 6.96189198 16.76396111 9 18 C9.73992187 18.48339844 10.47984375 18.96679688 11.2421875 19.46484375 C13.14042206 20.68417236 15.05458038 21.85801342 17 23 C16.01 23.99 15.02 24.98 14 26 C14.33 26.66 14.66 27.32 15 28 C10.71068153 26.52801986 7.48585122 24.34897548 3.875 21.625 C2.32425781 20.46871094 2.32425781 20.46871094 0.7421875 19.2890625 C-1.62847079 17.31013692 -3.30727634 15.55659642 -5 13 C-3.68 12.67 -2.36 12.34 -1 12 C-0.67 8.04 -0.34 4.08 0 0 Z " fill="#392F24" transform="translate(91,125)"/>
<path d="M0 0 C0 0.66 0 1.32 0 2 C-0.99 2 -1.98 2 -3 2 C-3.33 2.66 -3.66 3.32 -4 4 C-5.75 5.1875 -5.75 5.1875 -8 6 C-9.65 5.67 -11.3 5.34 -13 5 C-13 19.52 -13 34.04 -13 49 C-13.66 49 -14.32 49 -15 49 C-15 34.48 -15 19.96 -15 5 C-12.03 4.01 -9.06 3.02 -6 2 C-2 0 -2 0 0 0 Z " fill="#A08F7D" transform="translate(144,52)"/>
<path d="M0 0 C0.99 0.33 1.98 0.66 3 1 C2.979375 2.0725 2.95875 3.145 2.9375 4.25 C2.9863451 7.1807059 3.256813 9.23959114 4 12 C3.67 12.33 3.34 12.66 3 13 C2.85363946 16.36629251 2.92806521 18.78419562 4 22 C3.67 22.99 3.34 23.98 3 25 C3.66 25 4.32 25 5 25 C4.67 25.99 4.34 26.98 4 28 C4 27.34 4 26.68 4 26 C3.34 26 2.68 26 2 26 C-0.49261864 20.25613965 -2.1516534 15.8663568 -2.1875 9.5 C-2.20167969 8.3553125 -2.21585937 7.210625 -2.23046875 6.03125 C-2 3 -2 3 0 0 Z " fill="#372A20" transform="translate(73,101)"/>
<path d="M0 0 C0.625 1.875 0.625 1.875 1 4 C0.34 4.66 -0.32 5.32 -1 6 C-1.59416432 9.74323522 -2 13.21694904 -2 17 C-2 17.66 -2 18.32 -2 19 C-2.66 19 -3.32 19 -4 19 C-3.68143549 21.00240549 -3.34578768 23.00211562 -3 25 C-2.87625 25.7425 -2.7525 26.485 -2.625 27.25 C-2.05558108 29.39412039 -2.05558108 29.39412039 1 31 C0.505 33.475 0.505 33.475 0 36 C-5.2190975 29.47986673 -7.83231383 22.32313826 -7 14 C-5.78129741 8.68202506 -2.98512931 4.48908758 0 0 Z " fill="#B49E86" transform="translate(50,106)"/>
<path d="M0 0 C1.64574566 -0.02688151 3.29161413 -0.04634123 4.9375 -0.0625 C5.85402344 -0.07410156 6.77054687 -0.08570313 7.71484375 -0.09765625 C10 0 10 0 11 1 C11.125 4 11.125 4 11 7 C10 8 10 8 7.71484375 8.09765625 C6.34005859 8.08025391 6.34005859 8.08025391 4.9375 8.0625 C4.01839844 8.05347656 3.09929687 8.04445312 2.15234375 8.03515625 C1.44207031 8.02355469 0.73179688 8.01195312 0 8 C0 5.36 0 2.72 0 0 Z " fill="#443529" transform="translate(109,234)"/>
<path d="M0 0 C0.94915283 0.13631836 0.94915283 0.13631836 1.91748047 0.27539062 C18.78022738 2.65429144 35.0277764 4.18996434 52 2 C44.74896693 8.12332283 33.66711568 6.03217423 24.75 5.625 C23.6053125 5.58117187 22.460625 5.53734375 21.28125 5.4921875 C16.09489437 5.27508424 11.11451692 4.92573297 6 4 C5.2575 3.87625 4.515 3.7525 3.75 3.625 C2 3 2 3 0 0 Z " fill="#D5C1AB" transform="translate(142,168)"/>
<path d="M0 0 C1.25838557 2.51677113 1.20818973 4.41293288 1.31640625 7.2265625 C1.37924805 8.7734375 1.37924805 8.7734375 1.44335938 10.3515625 C1.48267578 11.43179688 1.52199219 12.51203125 1.5625 13.625 C1.60568359 14.71296875 1.64886719 15.8009375 1.69335938 16.921875 C1.7996453 19.6144517 1.90168057 22.30712253 2 25 C-1 26 -1 26 -3.0078125 25.07421875 C-3.70648438 24.61660156 -4.40515625 24.15898437 -5.125 23.6875 C-5.82882813 23.23761719 -6.53265625 22.78773438 -7.2578125 22.32421875 C-9 21 -9 21 -10 19 C-8.68 18.67 -7.36 18.34 -6 18 C-6 18.66 -6 19.32 -6 20 C-5.01 20.33 -4.02 20.66 -3 21 C-2.67 19.68 -2.34 18.36 -2 17 C-1.67 17 -1.34 17 -1 17 C-0.91885894 15.22992286 -0.86074495 13.45877902 -0.8125 11.6875 C-0.77769531 10.70136719 -0.74289063 9.71523437 -0.70703125 8.69921875 C-0.76395976 5.98535761 -0.76395976 5.98535761 -2.375 4.21875 C-4.16278978 2.87790766 -5.9631826 1.91305607 -8 1 C-5.07175348 0.02391783 -3.04386724 -0.08226668 0 0 Z " fill="#DAC4A9" transform="translate(105,120)"/>
<path d="M0 0 C1.32 0 2.64 0 4 0 C4 15.51 4 31.02 4 47 C0.37 46.34 -3.26 45.68 -7 45 C-7.33 44.34 -7.66 43.68 -8 43 C-2.555 42.505 -2.555 42.505 3 42 C2.94670532 40.29686646 2.94670532 40.29686646 2.89233398 38.55932617 C2.76203075 34.34951839 2.63884748 30.13952725 2.51782227 25.92944336 C2.46442973 24.10679417 2.4091025 22.28420059 2.35180664 20.46166992 C2.26981907 17.84305818 2.19477518 15.22432573 2.12109375 12.60546875 C2.09405869 11.78974899 2.06702362 10.97402924 2.03916931 10.1335907 C1.95112443 6.80145255 1.93712526 4.18862422 3 1 C2.01 0.67 1.02 0.34 0 0 Z " fill="#D2BEA4" transform="translate(153,119)"/>
<path d="M0 0 C2.31 0 4.62 0 7 0 C6.34 0.66 5.68 1.32 5 2 C11.9903233 3.01942215 18.94442055 3.31599923 26 3.5625 C27.15628906 3.60568359 28.31257813 3.64886719 29.50390625 3.69335938 C32.33583854 3.79867917 35.16784747 3.90081087 38 4 C38 4.33 38 4.66 38 5 C17.21 5.495 17.21 5.495 -4 6 C-3.67 4.68 -3.34 3.36 -3 2 C-2.01 2 -1.02 2 0 2 C0 1.34 0 0.68 0 0 Z " fill="#C4AE96" transform="translate(108,108)"/>
<path d="M0 0 C0.66 0 1.32 0 2 0 C2.33773437 0.68707031 2.67546875 1.37414062 3.0234375 2.08203125 C3.69246094 3.43361328 3.69246094 3.43361328 4.375 4.8125 C5.03628906 6.15248047 5.03628906 6.15248047 5.7109375 7.51953125 C7.01866905 10.14556381 7.01866905 10.14556381 9 13 C9.99 13 10.98 13 12 13 C12 13.66 12 14.32 12 15 C12.99 15.33 13.98 15.66 15 16 C14.01 16.99 13.02 17.98 12 19 C5.98940318 14.62865686 1.38243752 8.94949093 -3 3 C-2.67 2.34 -2.34 1.68 -2 1 C-1.34 1.33 -0.68 1.66 0 2 C0 1.34 0 0.68 0 0 Z " fill="#C5AF92" transform="translate(53,141)"/>
<path d="M0 0 C0.66 0.33 1.32 0.66 2 1 C2.40729228 3.32156597 2.74438677 5.6568787 3 8 C2.34 8 1.68 8 1 8 C0.01 9.485 0.01 9.485 -1 11 C-3.1640625 11.29296875 -3.1640625 11.29296875 -5.625 11.1875 C-6.44226563 11.16042969 -7.25953125 11.13335937 -8.1015625 11.10546875 C-8.72804687 11.07066406 -9.35453125 11.03585938 -10 11 C-9.67 8.69 -9.34 6.38 -9 4 C-7.68 4 -6.36 4 -5 4 C-5 4.66 -5 5.32 -5 6 C-3.02 5.67 -1.04 5.34 1 5 C0.67 3.35 0.34 1.7 0 0 Z " fill="#D0BCA1" transform="translate(262,236)"/>
<path d="M0 0 C0.33 0.99 0.66 1.98 1 3 C2.98 3 4.96 3 7 3 C7 3.33 7 3.66 7 4 C5.02 4 3.04 4 1 4 C1 4.66 1 5.32 1 6 C5.455 6.99 5.455 6.99 10 8 C10 8.33 10 8.66 10 9 C6.04 9 2.08 9 -2 9 C-2.33 10.98 -2.66 12.96 -3 15 C-5.64 15 -8.28 15 -11 15 C-11 14.67 -11 14.34 -11 14 C-8.69 14 -6.38 14 -4 14 C-4.185625 12.9275 -4.37125 11.855 -4.5625 10.75 C-4.93007793 7.59933204 -5.10841 5.881866 -4 3 C-3.67 2.67 -3.34 2.34 -3 2 C-2.01 2 -1.02 2 0 2 C0 1.34 0 0.68 0 0 Z " fill="#D6BFA5" transform="translate(251,244)"/>
<path d="M0 0 C3 1 3 1 4.203125 2.77734375 C4.54859375 3.49019531 4.8940625 4.20304688 5.25 4.9375 C5.60578125 5.64777344 5.9615625 6.35804688 6.328125 7.08984375 C6.54984375 7.72019531 6.7715625 8.35054687 7 9 C6.67 9.66 6.34 10.32 6 11 C5.01 10.67 4.02 10.34 3 10 C2.855625 10.928125 2.71125 11.85625 2.5625 12.8125 C2 16 2 16 1 19 C-0.32 18.67 -1.64 18.34 -3 18 C-2.690625 17.401875 -2.38125 16.80375 -2.0625 16.1875 C-0.89790296 13.91043228 -0.89790296 13.91043228 0 11 C0.66 11 1.32 11 2 11 C1.77183594 10.37351563 1.54367188 9.74703125 1.30859375 9.1015625 C0.87740234 7.87566406 0.87740234 7.87566406 0.4375 6.625 C0.14746094 5.81289062 -0.14257812 5.00078125 -0.44140625 4.1640625 C-1 2 -1 2 0 0 Z " fill="#DDC09D" transform="translate(217,141)"/>
<path d="M0 0 C1.9453125 -0.29296875 1.9453125 -0.29296875 4.125 -0.1875 C5.40375 -0.125625 6.6825 -0.06375 8 0 C7.27991594 4.60853797 5.68704061 8.67237409 4 13 C3.67 13 3.34 13 3 13 C2.875 6.25 2.875 6.25 4 4 C3.01 3.67 2.02 3.34 1 3 C-1.12046792 6.53411321 -1.53199289 9.94393835 -2 14 C-2.99 14.33 -3.98 14.66 -5 15 C-4.54901762 13.06077578 -4.08894441 11.12366406 -3.625 9.1875 C-3.24214844 7.56908203 -3.24214844 7.56908203 -2.8515625 5.91796875 C-2 3 -2 3 0 0 Z " fill="#BFAF9B" transform="translate(227,227)"/>
<path d="M0 0 C2.0625 1.75 2.0625 1.75 4 4 C3.69140625 5.984375 3.69140625 5.984375 3 8 C3.29866236 10.15394917 3.29866236 10.15394917 3.9375 12.25 C4.288125 13.4875 4.63875 14.725 5 16 C4.34 16 3.68 16 3 16 C2.87625 16.556875 2.7525 17.11375 2.625 17.6875 C2.41875 18.450625 2.2125 19.21375 2 20 C1.773125 20.886875 1.54625 21.77375 1.3125 22.6875 C0.879375 23.450625 0.44625 24.21375 0 25 C-3.125 25.8125 -3.125 25.8125 -6 26 C-4.625 24 -4.625 24 -3 22 C-2.34 22 -1.68 22 -1 22 C-0.18565857 19.14839609 0.11881242 16.63373869 0.09765625 13.671875 C0.09443359 12.87265625 0.09121094 12.0734375 0.08789062 11.25 C0.07951172 10.425 0.07113281 9.6 0.0625 8.75 C0.05573242 7.48929688 0.05573242 7.48929688 0.04882812 6.203125 C0.03707961 4.13538599 0.01914522 2.06768376 0 0 Z " fill="#CFB998" transform="translate(214,136)"/>
<path d="M0 0 C4.29 0.33 8.58 0.66 13 1 C13 1.33 13 1.66 13 2 C10.36 2 7.72 2 5 2 C5 17.84 5 33.68 5 50 C4.67 50 4.34 50 4 50 C3.67 33.83 3.34 17.66 3 1 C2.01 1.33 1.02 1.66 0 2 C0 1.34 0 0.68 0 0 Z " fill="#46392F" transform="translate(163,116)"/>
<path d="M0 0 C0 0.66 0 1.32 0 2 C-2.31 2.33 -4.62 2.66 -7 3 C-7 3.66 -7 4.32 -7 5 C-10.56240573 7.37493715 -12.83222127 8.16172939 -17.01171875 7.87890625 C-17.76904297 7.83056641 -18.52636719 7.78222656 -19.30664062 7.73242188 C-20.09232422 7.67634766 -20.87800781 7.62027344 -21.6875 7.5625 C-22.48478516 7.51029297 -23.28207031 7.45808594 -24.10351562 7.40429688 C-26.06936522 7.27480978 -28.03473665 7.13809959 -30 7 C-30 6.67 -30 6.34 -30 6 C-28.22496094 5.72736328 -28.22496094 5.72736328 -26.4140625 5.44921875 C-14.93577797 3.64718394 -14.93577797 3.64718394 -3.75 0.55078125 C-2 0 -2 0 0 0 Z " fill="#392E22" transform="translate(206,106)"/>
<path d="M0 0 C3.64780666 4.1689219 6 9.44803736 6 15 C3.36 15 0.72 15 -2 15 C-2.66 13.02 -3.32 11.04 -4 9 C-3.34 9 -2.68 9 -2 9 C-2 9.66 -2 10.32 -2 11 C-1.34 11 -0.68 11 0 11 C1.05404945 7.01803543 0.84098656 4.01804691 0 0 Z " fill="#C7B69F" transform="translate(265,244)"/>
<path d="M0 0 C2.79496066 2.79496066 2.66104876 5.13595584 3 9 C2.67 9.99 2.34 10.98 2 12 C-0.0625 12.6875 -0.0625 12.6875 -2 13 C-1.34 13.33 -0.68 13.66 0 14 C0.40729228 16.32156597 0.74438677 18.6568787 1 21 C-1 20 -1 20 -2.10546875 17.34765625 C-2.46253906 16.26355469 -2.81960937 15.17945313 -3.1875 14.0625 C-3.55230469 12.98097656 -3.91710937 11.89945313 -4.29296875 10.78515625 C-5 8 -5 8 -4 6 C-3.505 5.525625 -3.01 5.05125 -2.5 4.5625 C-0.74916008 2.9622647 -0.74916008 2.9622647 0 0 Z " fill="#D4BFA7" transform="translate(213,234)"/>
<path d="M0 0 C0.66 0.33 1.32 0.66 2 1 C2 1.99 2 2.98 2 4 C2.04125 4.969375 2.0825 5.93875 2.125 6.9375 C2.00205862 9.94956385 1.55553986 11.47224773 0 14 C-0.66 14 -1.32 14 -2 14 C-4.20536179 9.9728176 -5.45660208 6.56454251 -6 2 C-4.68 2 -3.36 2 -2 2 C-1.34 1.34 -0.68 0.68 0 0 Z " fill="#2E241A" transform="translate(220,232)"/>
<path d="M0 0 C-0.33 2.31 -0.66 4.62 -1 7 C-0.34 7 0.32 7 1 7 C3 9 3 9 3.125 11.625 C3.08375 12.40875 3.0425 13.1925 3 14 C1.68 13.67 0.36 13.34 -1 13 C-0.67 11.35 -0.34 9.7 0 8 C-1.32 8 -2.64 8 -4 8 C-4 6.68 -4 5.36 -4 4 C-5.65 4.66 -7.3 5.32 -9 6 C-8.67 5.01 -8.34 4.02 -8 3 C-8.99 2.67 -9.98 2.34 -11 2 C-9.5422647 1.664061 -8.08378894 1.33133376 -6.625 1 C-5.40683594 0.7215625 -5.40683594 0.7215625 -4.1640625 0.4375 C-2 0 -2 0 0 0 Z " fill="#F1D9BE" transform="translate(120,242)"/>
<path d="M0 0 C5.94 0 11.88 0 18 0 C18 0.33 18 0.66 18 1 C16.741875 1.103125 15.48375 1.20625 14.1875 1.3125 C11.39500343 1.64858808 10.25566879 1.80025876 8 3.5625 C7.67 4.036875 7.34 4.51125 7 5 C9.31 5.33 11.62 5.66 14 6 C14 6.33 14 6.66 14 7 C9.38 7 4.76 7 0 7 C0 4.69 0 2.38 0 0 Z " fill="#42362D" transform="translate(25,234)"/>
<path d="M0 0 C0.99 0 1.98 0 3 0 C3 1.65 3 3.3 3 5 C3.66 5 4.32 5 5 5 C6.4606285 7.64738916 7 8.89448334 7 12 C5.02 12.33 3.04 12.66 1 13 C-2.0656304 6.62348877 -2.0656304 6.62348877 -1.75 3.625 C-1 2 -1 2 0 1 C0 0.67 0 0.34 0 0 Z M-1 4 C0 6 0 6 0 6 Z " fill="#F1D9BD" transform="translate(256,229)"/>
<path d="M0 0 C4 1 4 1 5 2 C5.12682623 4.47163686 5.18520251 6.90290611 5.1875 9.375 C5.19974609 10.06078125 5.21199219 10.7465625 5.22460938 11.453125 C5.23552331 15.19296797 5.1266842 16.8099737 3 20 C3.33 16.04 3.66 12.08 4 8 C2.68 8.33 1.36 8.66 0 9 C-0.66 8.67 -1.32 8.34 -2 8 C-1.34 5.36 -0.68 2.72 0 0 Z " fill="#E0CBB2" transform="translate(220,151)"/>
<path d="M0 0 C0.27457031 0.55429688 0.54914062 1.10859375 0.83203125 1.6796875 C1.64634869 3.2974285 2.47853214 4.90624671 3.32421875 6.5078125 C3.77410156 7.37148437 4.22398438 8.23515625 4.6875 9.125 C5.14511719 9.99382812 5.60273437 10.86265625 6.07421875 11.7578125 C6.37972656 12.49773437 6.68523438 13.23765625 7 14 C6.67 14.66 6.34 15.32 6 16 C5.34 16 4.68 16 4 16 C2.0549 13.08235 1.54723683 11.37462715 1 8 C0.67 9.98 0.34 11.96 0 14 C-0.66 14 -1.32 14 -2 14 C-3.03524927 9.54842814 -2.9993078 7.10968826 -1 3 C-0.67 2.01 -0.34 1.02 0 0 Z " fill="#231B1C" transform="translate(43,128)"/>
<path d="M0 0 C0.99 0 1.98 0 3 0 C1.62805022 4.00152021 0.09552568 7.07180003 -3 10 C-6.75 10.3125 -6.75 10.3125 -10 10 C-10.33 8.35 -10.66 6.7 -11 5 C-10.113125 4.87625 -9.22625 4.7525 -8.3125 4.625 C-5.29612498 4.05587264 -2.79673946 3.23385564 0 2 C0 1.34 0 0.68 0 0 Z " fill="#E9D2B6" transform="translate(219,172)"/>
<path d="M0 0 C1.32 0 2.64 0 4 0 C4 1.65 4 3.3 4 5 C4.99 5.33 5.98 5.66 7 6 C7 4.68 7 3.36 7 2 C8.9375 2.6875 8.9375 2.6875 11 4 C11.75 6.625 11.75 6.625 12 9 C9.36 9 6.72 9 4 9 C3.67 8.01 3.34 7.02 3 6 C2.34 6 1.68 6 1 6 C0.67 4.02 0.34 2.04 0 0 Z " fill="#CBB7A6" transform="translate(116,250)"/>
<path d="M0 0 C0.99 0.33 1.98 0.66 3 1 C3.66 0.67 4.32 0.34 5 0 C7.15305957 3.85756507 8.39253254 6.55129785 8 11 C7.38125 11.12375 6.7625 11.2475 6.125 11.375 C3.80879168 11.87197356 3.80879168 11.87197356 2 14 C2 10.7 2 7.4 2 4 C1.34 3.67 0.68 3.34 0 3 C0 2.01 0 1.02 0 0 Z " fill="#F3DBBD" transform="translate(119,230)"/>
<path d="M0 0 C3.66666667 0 7.33333333 0 11 0 C11.33 1.32 11.66 2.64 12 4 C7.50343896 6.24828052 3.92127034 6.16682272 -1 6 C-0.67 4.02 -0.34 2.04 0 0 Z " fill="#E1CDB4" transform="translate(194,184)"/>
<path d="M0 0 C0.33 0 0.66 0 1 0 C1 2.31 1 4.62 1 7 C4.3 7 7.6 7 11 7 C11 15.25 11 23.5 11 32 C10.67 32 10.34 32 10 32 C10 24.08 10 16.16 10 8 C8.02 8.33 6.04 8.66 4 9 C4 9.33 4 9.66 4 10 C1.69 9.67 -0.62 9.34 -3 9 C-3 8.34 -3 7.68 -3 7 C-2.34 7 -1.68 7 -1 7 C-0.67 4.69 -0.34 2.38 0 0 Z " fill="#362B21" transform="translate(140,227)"/>
<path d="M0 0 C2.17578125 0.0234375 2.17578125 0.0234375 4.125 0.375 C6.1875 2.625 6.1875 2.625 7.125 5.375 C6.8125 7.6875 6.8125 7.6875 6.125 9.375 C6.125 8.715 6.125 8.055 6.125 7.375 C5.465 7.375 4.805 7.375 4.125 7.375 C4.125 5.725 4.125 4.075 4.125 2.375 C3.465 3.695 2.805 5.015 2.125 6.375 C2.125 5.715 2.125 5.055 2.125 4.375 C0.145 5.365 0.145 5.365 -1.875 6.375 C-1.545 5.055 -1.215 3.735 -0.875 2.375 C-1.308125 2.808125 -1.74125 3.24125 -2.1875 3.6875 C-3.75 5.25 -5.3125 6.8125 -6.875 8.375 C-4.71536145 0.4563253 -4.71536145 0.4563253 0 0 Z " fill="#C2AE9B" transform="translate(254.875,226.625)"/>
<path d="M0 0 C0.66 0 1.32 0 2 0 C2 0.66 2 1.32 2 2 C1.34 2 0.68 2 0 2 C0 6.29 0 10.58 0 15 C2.97 15.495 2.97 15.495 6 16 C8.375 17.5625 8.375 17.5625 10 19 C2.95522388 19.59701493 2.95522388 19.59701493 -1 17.125 C-3.73724798 12.84805004 -3.96852801 8.96370607 -3 4 C-1.59375 1.69140625 -1.59375 1.69140625 0 0 Z " fill="#554638" transform="translate(66,234)"/>
<path d="M0 0 C0.66 0 1.32 0 2 0 C2.66 0.66 3.32 1.32 4 2 C4.33 1.34 4.66 0.68 5 0 C5.66 0 6.32 0 7 0 C6.67 1.65 6.34 3.3 6 5 C2.57767028 6.14077657 -0.08673217 6.09815117 -3.6875 6.0625 C-5.45673828 6.04896484 -5.45673828 6.04896484 -7.26171875 6.03515625 C-8.16535156 6.02355469 -9.06898438 6.01195313 -10 6 C-10 5.67 -10 5.34 -10 5 C-9.195625 4.87625 -8.39125 4.7525 -7.5625 4.625 C-6.716875 4.41875 -5.87125 4.2125 -5 4 C-4.67 3.34 -4.34 2.68 -4 2 C-2.68 2.33 -1.36 2.66 0 3 C0 2.01 0 1.02 0 0 Z " fill="#E5CFB4" transform="translate(186,105)"/>
<path d="M0 0 C0.33 0 0.66 0 1 0 C1.05607422 1.22976562 1.05607422 1.22976562 1.11328125 2.484375 C1.21189453 4.10085937 1.21189453 4.10085937 1.3125 5.75 C1.37050781 6.81734375 1.42851563 7.8846875 1.48828125 8.984375 C2.03090154 12.1821068 2.85071145 13.62598691 5 16 C4.01 16 3.02 16 2 16 C2 16.99 2 17.98 2 19 C-1.36720387 17.60667426 -2.9859524 16.0210714 -5 13 C-3.68 12.67 -2.36 12.34 -1 12 C-0.67 8.04 -0.34 4.08 0 0 Z " fill="#44382E" transform="translate(91,125)"/>
<path d="M0 0 C2.875 0.6875 2.875 0.6875 6 2 C7.375 4.625 7.375 4.625 8 7 C6.68 6.34 5.36 5.68 4 5 C4 4.01 4 3.02 4 2 C3.34 2 2.68 2 2 2 C1.67 4.31 1.34 6.62 1 9 C0.484375 8.690625 -0.03125 8.38125 -0.5625 8.0625 C-3.66665423 6.70940713 -6.65115007 6.38640576 -10 6 C-10 5.67 -10 5.34 -10 5 C-7.69 5 -5.38 5 -3 5 C-3 4.01 -3 3.02 -3 2 C-2.34 2 -1.68 2 -1 2 C-0.67 1.34 -0.34 0.68 0 0 Z " fill="#C6B29B" transform="translate(78,228)"/>
<path d="M0 0 C0 8.58 0 17.16 0 26 C-0.99 25.67 -1.98 25.34 -3 25 C-2.67 24.01 -2.34 23.02 -2 22 C-1.82790194 19.54548666 -1.73341562 17.08511082 -1.6875 14.625 C-1.65011719 13.31789063 -1.61273438 12.01078125 -1.57421875 10.6640625 C-2.05566179 6.52100225 -3.12455247 4.93783397 -6 2 C-1.125 0 -1.125 0 0 0 Z " fill="#D7C2AC" transform="translate(119,73)"/>
<path d="M0 0 C1.32 0 2.64 0 4 0 C4 0.66 4 1.32 4 2 C4.66 1.67 5.32 1.34 6 1 C6 0.67 6 0.34 6 0 C7.98 0 9.96 0 12 0 C12 1.32 12 2.64 12 4 C7.71 4 3.42 4 -1 4 C-1 1 -1 1 0 0 Z " fill="#F0DBC2" transform="translate(26,242)"/>
<path d="M0 0 C0.33 0 0.66 0 1 0 C1 1.65 1 3.3 1 5 C2.32 5 3.64 5 5 5 C5 4.34 5 3.68 5 3 C7.64 3 10.28 3 13 3 C13 4.32 13 5.64 13 7 C8.71 7 4.42 7 0 7 C0 4.69 0 2.38 0 0 Z " fill="#EDD5BB" transform="translate(169,159)"/>
<path d="M0 0 C-0.66 2.31 -1.32 4.62 -2 7 C-2.99 6.34 -3.98 5.68 -5 5 C-5.66 6.32 -6.32 7.64 -7 9 C-7.33 8.34 -7.66 7.68 -8 7 C-8.66 6.67 -9.32 6.34 -10 6 C-9.67 5.01 -9.34 4.02 -9 3 C-9.66 2.67 -10.32 2.34 -11 2 C-9.54494642 1.47007308 -8.08581873 0.9513211 -6.625 0.4375 C-5.81289062 0.14746094 -5.00078125 -0.14257812 -4.1640625 -0.44140625 C-2 -1 -2 -1 0 0 Z " fill="#C2AE94" transform="translate(183,23)"/>
<path d="M0 0 C1.98 0 3.96 0 6 0 C6.66 2.31 7.32 4.62 8 7 C8.66 7 9.32 7 10 7 C9 9 9 9 7 10 C7 8.68 7 7.36 7 6 C6.34 6 5.68 6 5 6 C5 5.34 5 4.68 5 4 C3.68 4 2.36 4 1 4 C1 5.98 1 7.96 1 10 C0.67 10 0.34 10 0 10 C0 6.7 0 3.4 0 0 Z " fill="#362B21" transform="translate(109,249)"/>
<path d="M0 0 C6.4 -0.36923077 6.4 -0.36923077 9.4375 1.5 C9.953125 1.995 10.46875 2.49 11 3 C10.67 3.99 10.34 4.98 10 6 C7 6 4 6 1 6 C1 5.34 1 4.68 1 4 C0.34 3.67 -0.32 3.34 -1 3 C-0.67 2.01 -0.34 1.02 0 0 Z " fill="#251F16" transform="translate(68,234)"/>
<path d="M0 0 C2.64 0 5.28 0 8 0 C7.5359375 0.99 7.5359375 0.99 7.0625 2 C5.75039745 5.70476015 5.39735865 9.09263991 5 13 C2.94876752 10.94876752 2.35852882 9.72994937 1.375 7.0625 C0.98441406 6.02802734 0.98441406 6.02802734 0.5859375 4.97265625 C0 3 0 3 0 0 Z " fill="#C4B5A1" transform="translate(203,227)"/>
<path d="M0 0 C0.5878125 0.21011719 1.175625 0.42023438 1.78125 0.63671875 C0.40625 2.63671875 0.40625 2.63671875 -1.21875 4.63671875 C-1.87875 4.63671875 -2.53875 4.63671875 -3.21875 4.63671875 C-3.21875 5.29671875 -3.21875 5.95671875 -3.21875 6.63671875 C-4.12625 6.78109375 -5.03375 6.92546875 -5.96875 7.07421875 C-8.43351956 7.50081348 -10.80722107 7.98746096 -13.21875 8.63671875 C-10.89352611 6.12547695 -8.42640216 3.90881977 -5.71875 1.82421875 C-5.1515625 1.38464844 -4.584375 0.94507812 -4 0.4921875 C-2.21875 -0.36328125 -2.21875 -0.36328125 0 0 Z " fill="#B59F89" transform="translate(64.21875,97.36328125)"/>
<path d="M0 0 C1.0723969 3.68636433 1.04183175 6.97314114 0.9375 10.78125 C1.00104326 13.03703579 1.25285087 14.87062498 2 17 C2.66 17.33 3.32 17.66 4 18 C3.67 18.99 3.34 19.98 3 21 C4.32 21.66 5.64 22.32 7 23 C6.34 23.33 5.68 23.66 5 24 C2 23 2 23 0.3125 20.25 C-2.10803252 14.16698634 -2.05230113 6.1569034 0 0 Z " fill="#A59686" transform="translate(56,234)"/>
<path d="M0 0 C-0.33 6.6 -0.66 13.2 -1 20 C-1.33 20 -1.66 20 -2 20 C-2.33 15.05 -2.66 10.1 -3 5 C-4.32 5 -5.64 5 -7 5 C-6.6875 3.0625 -6.6875 3.0625 -6 1 C-3 0 -3 0 0 0 Z " fill="#EDD7BC" transform="translate(195,19)"/>
<path d="M0 0 C0.66 0.33 1.32 0.66 2 1 C2 5.29 2 9.58 2 14 C1.01 14.33 0.02 14.66 -1 15 C-1.02685412 12.68756208 -1.04632841 10.3750373 -1.0625 8.0625 C-1.07410156 6.77472656 -1.08570313 5.48695313 -1.09765625 4.16015625 C-1 1 -1 1 0 0 Z " fill="#F6D9BC" transform="translate(155,240)"/>
<path d="M0 0 C3.63 0 7.26 0 11 0 C11 2.62113708 10.68707555 4.50935112 10 7 C9.649375 6.195625 9.29875 5.39125 8.9375 4.5625 C7.14332716 1.6132233 7.14332716 1.6132233 3.3125 1.1875 C1.6728125 1.0946875 1.6728125 1.0946875 0 1 C0 0.67 0 0.34 0 0 Z M5 2 C5.66 2 6.32 2 7 2 C7.33 2.99 7.66 3.98 8 5 C7 6 7 6 4.71484375 6.09765625 C3.34005859 6.08025391 3.34005859 6.08025391 1.9375 6.0625 C1.01839844 6.05347656 0.09929687 6.04445312 -0.84765625 6.03515625 C-1.55792969 6.02355469 -2.26820312 6.01195312 -3 6 C-3 5.67 -3 5.34 -3 5 C-1.865625 4.87625 -0.73125 4.7525 0.4375 4.625 C1.613125 4.41875 2.78875 4.2125 4 4 C4.33 3.34 4.66 2.68 5 2 Z " fill="#DCC7AD" transform="translate(112,228)"/>
<path d="M0 0 C11.88 1.485 11.88 1.485 24 3 C24 3.33 24 3.66 24 4 C21.60472566 4.22295635 19.20998659 4.42874063 16.8125 4.625 C15.80219727 4.72167969 15.80219727 4.72167969 14.77148438 4.8203125 C10.61006824 5.14510595 7.72724329 4.89063066 4 3 C3.236875 2.62875 2.47375 2.2575 1.6875 1.875 C1.130625 1.58625 0.57375 1.2975 0 1 C0 0.67 0 0.34 0 0 Z " fill="#BEAE98" transform="translate(142,168)"/>
<path d="M0 0 C0.33 0 0.66 0 1 0 C1 1.98 1 3.96 1 6 C0.01 6 -0.98 6 -2 6 C-1.67 6.99 -1.34 7.98 -1 9 C-3.75 9.25 -3.75 9.25 -7 9 C-9.375 7 -9.375 7 -11 5 C-6.98195309 4.15901344 -3.98196457 3.94595055 0 5 C0 3.35 0 1.7 0 0 Z " fill="#23180F" transform="translate(159,161)"/>
<path d="M0 0 C0.99 0.33 1.98 0.66 3 1 C3.33 3.31 3.66 5.62 4 8 C2.02 8 0.04 8 -2 8 C-1.125 1.125 -1.125 1.125 0 0 Z " fill="#574637" transform="translate(254,239)"/>
<path d="M0 0 C-0.33 0.99 -0.66 1.98 -1 3 C-1.66 2.67 -2.32 2.34 -3 2 C-3 2.99 -3 3.98 -3 5 C-5.31 5 -7.62 5 -10 5 C-10.33 3.68 -10.66 2.36 -11 1 C-7.26562152 0.12132271 -3.83225427 -0.08912219 0 0 Z " fill="#F0D7BA" transform="translate(78,228)"/>
<path d="M0 0 C0.66 0 1.32 0 2 0 C1.67 3.3 1.34 6.6 1 10 C0.01 10 -0.98 10 -2 10 C-2.66 7.03 -3.32 4.06 -4 1 C-3.67 1.66 -3.34 2.32 -3 3 C-2.01 3 -1.02 3 0 3 C0 2.01 0 1.02 0 0 Z " fill="#F1D5BB" transform="translate(215,243)"/>
<path d="M0 0 C3.3063908 0.55106513 6.19982126 1.09987871 9 3 C9.75 5.125 9.75 5.125 10 7 C6.83214131 7 5.71896141 6.44444825 3 5 C2.01 4.67 1.02 4.34 0 4 C0 2.68 0 1.36 0 0 Z " fill="#261D16" transform="translate(93,141)"/>
<path d="M0 0 C0.99 0.33 1.98 0.66 3 1 C2.01 1.33 1.02 1.66 0 2 C0.226875 2.556875 0.45375 3.11375 0.6875 3.6875 C1 6 1 6 -0.25 8.75 C-0.8275 9.4925 -1.405 10.235 -2 11 C-2.99 11 -3.98 11 -5 11 C-5.99 11.495 -5.99 11.495 -7 12 C-5.61735163 9.13132769 -4.07851447 6.43975968 -2.375 3.75 C-1.92898437 3.04359375 -1.48296875 2.3371875 -1.0234375 1.609375 C-0.68570313 1.07828125 -0.34796875 0.5471875 0 0 Z " fill="#B4A28C" transform="translate(223,32)"/>
<path d="M0 0 C2.9375 0.8125 2.9375 0.8125 6 2 C6.33 2.99 6.66 3.98 7 5 C7.99 4.67 8.98 4.34 10 4 C10 4.66 10 5.32 10 6 C11.32 5.67 12.64 5.34 14 5 C14 6.32 14 7.64 14 9 C8.8423143 7.58163643 4.20024742 5.32608425 0 2 C0 1.34 0 0.68 0 0 Z " fill="#BFAD96" transform="translate(105,145)"/>
<path d="M0 0 C0 3.10551666 -0.5393715 4.35261084 -2 7 C-2.66 7 -3.32 7 -4 7 C-4 7.66 -4 8.32 -4 9 C-5.98 9.99 -7.96 10.98 -10 12 C-10.99 11.34 -11.98 10.68 -13 10 C-12.39671875 9.61328125 -11.7934375 9.2265625 -11.171875 8.828125 C-5.17198187 4.92383803 -5.17198187 4.92383803 0 0 Z " fill="#473B2D" transform="translate(223,93)"/>
<path d="M0 0 C0.33 0 0.66 0 1 0 C0.25 6.75 0.25 6.75 -2 9 C-5.625 9.125 -5.625 9.125 -9 9 C-7.68 7.68 -6.36 6.36 -5 5 C-4.01 5.33 -3.02 5.66 -2 6 C-1.855625 5.195625 -1.71125 4.39125 -1.5625 3.5625 C-1 1 -1 1 0 0 Z " fill="#271D15" transform="translate(78,243)"/>
<path d="M0 0 C1.32 0 2.64 0 4 0 C4 0.66 4 1.32 4 2 C4.66 2 5.32 2 6 2 C6 2.99 6 3.98 6 5 C6.66 5.33 7.32 5.66 8 6 C5.36 6 2.72 6 0 6 C0 4.02 0 2.04 0 0 Z " fill="#1C1810" transform="translate(110,235)"/>
<path d="M0 0 C0 0.66 0 1.32 0 2 C2.31 2.66 4.62 3.32 7 4 C6.34 4.66 5.68 5.32 5 6 C2.90625 5.828125 2.90625 5.828125 0.5 5.25 C-0.69109375 4.97929687 -0.69109375 4.97929687 -1.90625 4.703125 C-4 4 -4 4 -6 2 C-2.25 0 -2.25 0 0 0 Z " fill="#D3BDA6" transform="translate(104,177)"/>
<path d="M0 0 C2 2 2 2 2.01171875 3.875 C1.90472656 4.57625 1.79773438 5.2775 1.6875 6 C1.58824219 6.70125 1.48898438 7.4025 1.38671875 8.125 C1 10 1 10 0 12 C-0.66 12 -1.32 12 -2 12 C-2 8.37 -2 4.74 -2 1 C-1.34 0.67 -0.68 0.34 0 0 Z " fill="#343023" transform="translate(227,153)"/>
<path d="M0 0 C0 0.33 0 0.66 0 1 C-1.65 1.33 -3.3 1.66 -5 2 C-4.67 2.66 -4.34 3.32 -4 4 C-4.66 4 -5.32 4 -6 4 C-6 4.66 -6 5.32 -6 6 C-7.65 5.67 -9.3 5.34 -11 5 C-10.67 4.34 -10.34 3.68 -10 3 C-11.98 3.33 -13.96 3.66 -16 4 C-11.93477827 -0.06522173 -5.49940708 -0.27497035 0 0 Z " fill="#403329" transform="translate(110,114)"/>
<path d="M0 0 C1.24546405 2.49092811 0.7767578 3.41080733 0 6 C2.31 6 4.62 6 7 6 C7 6.33 7 6.66 7 7 C6.05125 7.103125 5.1025 7.20625 4.125 7.3125 C0.70892499 7.68539295 0.70892499 7.68539295 -1 11 C-3 10 -3 10 -3.875 8.3125 C-4.06890753 4.72521067 -2.08770413 2.7836055 0 0 Z " fill="#322924" transform="translate(240,253)"/>
<path d="M0 0 C1.32 0 2.64 0 4 0 C4 0.66 4 1.32 4 2 C6.31 2.33 8.62 2.66 11 3 C11 3.33 11 3.66 11 4 C7.37 4.33 3.74 4.66 0 5 C-0.33 4.01 -0.66 3.02 -1 2 C-0.67 1.34 -0.34 0.68 0 0 Z " fill="#D4B99E" transform="translate(182,161)"/>
<path d="M0 0 C2.4375 0.375 2.4375 0.375 5 1 C5.33 1.66 5.66 2.32 6 3 C6.99 3 7.98 3 9 3 C9 3.66 9 4.32 9 5 C9.99 5.33 10.98 5.66 12 6 C11.01 6.99 10.02 7.98 9 9 C5.42589203 6.31941902 2.68058098 3.57410797 0 0 Z " fill="#BCA78C" transform="translate(56,151)"/>
<path d="M0 0 C-1 3 -1 3 -3.25 4.25 C-6.35010074 5.09548202 -7.93970907 4.86315898 -11 4 C-12.33261896 3.66382208 -13.6658412 3.33001391 -15 3 C-13.44033782 2.491217 -11.87710759 1.99336531 -10.3125 1.5 C-9.44238281 1.2215625 -8.57226562 0.943125 -7.67578125 0.65625 C-5.00608323 0.00149195 -2.73603316 -0.11831495 0 0 Z " fill="#968876" transform="translate(82,92)"/>
<path d="M0 0 C0.99 0 1.98 0 3 0 C2.72510809 4.03174806 2.46508424 5.56894631 -0.5625 8.375 C-1.366875 8.91125 -2.17125 9.4475 -3 10 C-3.93423645 6.98968256 -4.04449911 6.13349732 -3 3 C-2.01 2.34 -1.02 1.68 0 1 C0 0.67 0 0.34 0 0 Z " fill="#F3DABF" transform="translate(249,240)"/>
<path d="M0 0 C0.99 1.485 0.99 1.485 2 3 C-3.23880078 2.44854729 -7.97350697 1.57077907 -13 0 C-11.66961551 -0.3449145 -10.33542939 -0.67516582 -9 -1 C-8.175 -1.226875 -7.35 -1.45375 -6.5 -1.6875 C-3.54452062 -2.05693492 -2.42876154 -1.67500796 0 0 Z " fill="#C4B39F" transform="translate(132,188)"/>
<path d="M0 0 C-0.66 1.65 -1.32 3.3 -2 5 C-5.36591866 3.55746343 -7.51047079 1.66735273 -10 -1 C-6.18510326 -2.46726798 -3.70988378 -1.43336419 0 0 Z " fill="#C7AF93" transform="translate(76,161)"/>
<path d="M0 0 C0 0.99 0 1.98 0 3 C-4.455 4.485 -4.455 4.485 -9 6 C-8.67 4.35 -8.34 2.7 -8 1 C-2.25 -1.125 -2.25 -1.125 0 0 Z " fill="#23190E" transform="translate(102,117)"/>
<path d="M0 0 C1.79240663 0.11389875 3.58394835 0.24147687 5.375 0.375 C6.87160156 0.47941406 6.87160156 0.47941406 8.3984375 0.5859375 C11 1 11 1 13 3 C11.02 3 9.04 3 7 3 C6.67 3.66 6.34 4.32 6 5 C4.125 4.75 4.125 4.75 2 4 C0.8671875 1.953125 0.8671875 1.953125 0 0 Z " fill="#E9D2BA" transform="translate(155,99)"/>
<path d="M0 0 C0 0.99 0 1.98 0 3 C-2.64 2.67 -5.28 2.34 -8 2 C-8 1.67 -8 1.34 -8 1 C-5.23735711 0.40267181 -2.83967231 0 0 0 Z M0 4 C-2.76223278 6.76223278 -5.20706617 6.57856291 -9 7 C-9 6.34 -9 5.68 -9 5 C-5.64919071 2.89023119 -3.77897651 2.9502843 0 4 Z " fill="#372C21" transform="translate(196,164)"/>
<path d="M0 0 C0.33 0.66 0.66 1.32 1 2 C0.30895557 3.97441265 -0.3908385 5.94692431 -1.1640625 7.890625 C-2.22123324 10.5582521 -3.11330592 13.27171052 -4 16 C-5.00361368 12.87764633 -4.97763219 11.11064789 -4 8 C-3.690625 6.783125 -3.38125 5.56625 -3.0625 4.3125 C-2.711875 3.219375 -2.36125 2.12625 -2 1 C-1.34 0.67 -0.68 0.34 0 0 Z " fill="#CEBBA7" transform="translate(229,240)"/>
<path d="M0 0 C0 0.66 0 1.32 0 2 C-3.71973879 4.84450614 -6.37390802 5.3227506 -11 5 C-10.34 4.67 -9.68 4.34 -9 4 C-9 3.01 -9 2.02 -9 1 C-2.25 0 -2.25 0 0 0 Z " fill="#291F15" transform="translate(205,163)"/>
<path d="M0 0 C0.33 1.32 0.66 2.64 1 4 C1.66 4 2.32 4 3 4 C3.75 6.25 3.75 6.25 4 9 C2.68 10.32 1.36 11.64 0 13 C0 8.71 0 4.42 0 0 Z " fill="#4F4134" transform="translate(87,236)"/>
<path d="M0 0 C0.66 0 1.32 0 2 0 C2 0.99 2 1.98 2 3 C2.66 3 3.32 3 4 3 C3.67 4.65 3.34 6.3 3 8 C1.68 8 0.36 8 -1 8 C-1.625 5.6875 -1.625 5.6875 -2 3 C-1.34 2.01 -0.68 1.02 0 0 Z " fill="#F1DAC1" transform="translate(80,230)"/>
<path d="M0 0 C-0.99 0.33 -1.98 0.66 -3 1 C-4.20882096 3.00016466 -4.20882096 3.00016466 -5 5 C-7.31 4.67 -9.62 4.34 -12 4 C-8.59914501 0.59914501 -4.67235329 -1.5574511 0 0 Z " fill="#C5B39E" transform="translate(206,166)"/>
<path d="M0 0 C3.3 1.98 6.6 3.96 10 6 C9.67 6.99 9.34 7.98 9 9 C5.18063472 7.44396229 2.73955562 5.04395069 0 2 C0 1.34 0 0.68 0 0 Z " fill="#291D16" transform="translate(70,164)"/>
<path d="M0 0 C3.96 0 7.92 0 12 0 C12 1.32 12 2.64 12 4 C10.1858073 3.71905418 8.37364999 3.42493567 6.5625 3.125 C5.04849609 2.88136719 5.04849609 2.88136719 3.50390625 2.6328125 C2.67761719 2.42398438 1.85132813 2.21515625 1 2 C0.67 1.34 0.34 0.68 0 0 Z " fill="#C5B19E" transform="translate(145,162)"/>
<path d="M0 0 C0.99 0.33 1.98 0.66 3 1 C4.1875 4.0625 4.1875 4.0625 5 7 C3.02 7.99 3.02 7.99 1 9 C-1.125 2.25 -1.125 2.25 0 0 Z " fill="#CEBFA1" transform="translate(217,141)"/>
<path d="M0 0 C0 0.66 0 1.32 0 2 C-0.99 2 -1.98 2 -3 2 C-3.33 2.66 -3.66 3.32 -4 4 C-6.54868779 5.72946672 -7.65256571 6.0473774 -10.75 5.625 C-11.4925 5.41875 -12.235 5.2125 -13 5 C-13.33 6.32 -13.66 7.64 -14 9 C-14 7.35 -14 5.7 -14 4 C-13.30132812 3.79503906 -12.60265625 3.59007812 -11.8828125 3.37890625 C-10.97273437 3.10949219 -10.06265625 2.84007812 -9.125 2.5625 C-8.22007812 2.29566406 -7.31515625 2.02882812 -6.3828125 1.75390625 C-0.83937824 0 -0.83937824 0 0 0 Z " fill="#B9A491" transform="translate(144,52)"/>
<path d="M0 0 C0.33 0.66 0.66 1.32 1 2 C0.34 1.67 -0.32 1.34 -1 1 C-0.67 0.67 -0.34 0.34 0 0 Z M-4 2 C-3.01 2.33 -2.02 2.66 -1 3 C-1.66 4.65 -2.32 6.3 -3 8 C-4.65 8 -6.3 8 -8 8 C-8.33 6.68 -8.66 5.36 -9 4 C-8.01 4 -7.02 4 -6 4 C-6 4.99 -6 5.98 -6 7 C-5.34 7 -4.68 7 -4 7 C-4.33 6.01 -4.66 5.02 -5 4 C-4.67 3.34 -4.34 2.68 -4 2 Z " fill="#F7DBC0" transform="translate(81,250)"/>
<path d="M0 0 C0.33 0.66 0.66 1.32 1 2 C2.97888961 2.72693904 4.97954558 3.39816251 7 4 C7 4.99 7 5.98 7 7 C2.94718288 5.77472971 -0.44360764 4.30119506 -4 2 C-2.68 1.34 -1.36 0.68 0 0 Z " fill="#C1AD98" transform="translate(86,170)"/>
<path d="M0 0 C0.66 0 1.32 0 2 0 C2 0.66 2 1.32 2 2 C2.928125 2.12375 2.928125 2.12375 3.875 2.25 C6 3 6 3 7.375 4.8125 C8 7 8 7 6 11 C4.02 7.37 2.04 3.74 0 0 Z " fill="#2F251E" transform="translate(216,137)"/>
<path d="M0 0 C0.33 0.99 0.66 1.98 1 3 C-1.97 3 -4.94 3 -8 3 C-7.67 5.97 -7.34 8.94 -7 12 C-7.99 12.33 -8.98 12.66 -10 13 C-9.67 9.37 -9.34 5.74 -9 2 C-6.03 2 -3.06 2 0 2 C0 1.34 0 0.68 0 0 Z " fill="#5C4E41" transform="translate(244,61)"/>
<path d="M0 0 C-0.28875 0.556875 -0.5775 1.11375 -0.875 1.6875 C-2.05960441 4.02806407 -2.05960441 4.02806407 -3 6.6875 C-4 9 -4 9 -6 10 C-6.22692276 6.67179946 -6.32162419 4.58198664 -4.6875 1.625 C-3 0 -3 0 0 0 Z " fill="#352B1F" transform="translate(219,38)"/>
<path d="M0 0 C-1.0975223 2.99324263 -1.67682892 3.84610901 -4.625 5.25 C-5.40875 5.4975 -6.1925 5.745 -7 6 C-7 4.35 -7 2.7 -7 1 C-4.53721199 -0.231394 -2.7204945 -0.07159196 0 0 Z " fill="#E5CBB2" transform="translate(85,252)"/>
<path d="M0 0 C3.625 -0.1875 3.625 -0.1875 7 0 C7.33 0.99 7.66 1.98 8 3 C6.68 2.67 5.36 2.34 4 2 C4 2.66 4 3.32 4 4 C2.125 4.625 2.125 4.625 0 5 C-0.66 4.34 -1.32 3.68 -2 3 C-1.34 2.01 -0.68 1.02 0 0 Z " fill="#F2DCC1" transform="translate(198,184)"/>
<path d="M0 0 C3.96 0 7.92 0 12 0 C12 0.33 12 0.66 12 1 C8.04 1.99 4.08 2.98 0 4 C0 2.68 0 1.36 0 0 Z " fill="#C6B19A" transform="translate(92,114)"/>
<path d="M0 0 C0.66 0.66 1.32 1.32 2 2 C1.34 3.98 0.68 5.96 0 8 C-1.32 7.34 -2.64 6.68 -4 6 C-3.67 4.68 -3.34 3.36 -3 2 C-2.01 2 -1.02 2 0 2 C0 1.34 0 0.68 0 0 Z " fill="#D1B899" transform="translate(54,104)"/>
<path d="M0 0 C1.125 1.75 1.125 1.75 2 4 C1.125 6.25 1.125 6.25 0 8 C-0.66 8 -1.32 8 -2 8 C-2 8.66 -2 9.32 -2 10 C-2.99 10.33 -3.98 10.66 -5 11 C-4.34 9.35 -3.68 7.7 -3 6 C-2.34 6 -1.68 6 -1 6 C-0.67 4.02 -0.34 2.04 0 0 Z " fill="#BCAA91" transform="translate(211,72)"/>
<path d="M0 0 C0.28875 0.61875 0.5775 1.2375 0.875 1.875 C1.93720042 4.13325765 1.93720042 4.13325765 4 6 C3.01 6.33 2.02 6.66 1 7 C-2.1875 5.125 -2.1875 5.125 -5 3 C-5 2.67 -5 2.34 -5 2 C-3.35 2 -1.7 2 0 2 C0 1.34 0 0.68 0 0 Z " fill="#BDAA8E" transform="translate(79,164)"/>
<path d="M0 0 C1.32 1.32 2.64 2.64 4 4 C3.953125 6.796875 3.953125 6.796875 3.25 9.75 C3.02828125 10.73484375 2.8065625 11.7196875 2.578125 12.734375 C2.38734375 13.48203125 2.1965625 14.2296875 2 15 C1.67 15 1.34 15 1 15 C0.67 10.05 0.34 5.1 0 0 Z " fill="#A99A89" transform="translate(214,136)"/>
<path d="M0 0 C1.95582488 2.93373731 3.56224304 5.78216298 5 9 C4.67 9.66 4.34 10.32 4 11 C3.34 11 2.68 11 2 11 C-0.67927341 6.98108988 -0.15601248 4.75838077 0 0 Z " fill="#423526" transform="translate(45,133)"/>
<path d="M0 0 C0.99 0.495 0.99 0.495 2 1 C2 1.66 2 2.32 2 3 C2.99 2.67 3.98 2.34 5 2 C4.67 3.98 4.34 5.96 4 8 C4.66 8 5.32 8 6 8 C5.67 8.99 5.34 9.98 5 11 C5 10.34 5 9.68 5 9 C4.34 9 3.68 9 3 9 C0 2.25 0 2.25 0 0 Z " fill="#56493A" transform="translate(72,118)"/>
<path d="M0 0 C2 0 2 0 3.625 1.375 C5 3 5 3 5 5 C5.99 5.33 6.98 5.66 8 6 C7.67 7.65 7.34 9.3 7 11 C4.23455278 7.54319097 2.15078722 3.85658398 0 0 Z " fill="#322920" transform="translate(239,53)"/>
<path d="M0 0 C2.97 0.495 2.97 0.495 6 1 C5.34 2.98 4.68 4.96 4 7 C3.67 6.34 3.34 5.68 3 5 C2.34 4.67 1.68 4.34 1 4 C1.33 3.01 1.66 2.02 2 1 C1.34 0.67 0.68 0.34 0 0 Z " fill="#CEB393" transform="translate(172,25)"/>
<path d="M0 0 C4.62 0 9.24 0 14 0 C14 0.33 14 0.66 14 1 C12.25215171 1.36463732 10.50159498 1.7163078 8.75 2.0625 C7.28820312 2.35833984 7.28820312 2.35833984 5.796875 2.66015625 C3.131881 2.98397535 1.51128277 2.85503199 -1 2 C-0.67 1.34 -0.34 0.68 0 0 Z " fill="#E7CEB5" transform="translate(148,172)"/>
<path d="M0 0 C3.24208567 0.35049575 4.61527704 0.56221181 6.8125 3.0625 C7.204375 3.701875 7.59625 4.34125 8 5 C7.01 5.33 6.02 5.66 5 6 C4.67 4.68 4.34 3.36 4 2 C3.67 2.66 3.34 3.32 3 4 C1.68 3.34 0.36 2.68 -1 2 C-0.67 1.34 -0.34 0.68 0 0 Z " fill="#1E130E" transform="translate(105,149)"/>
<path d="M0 0 C-1.65 1.65 -3.3 3.3 -5 5 C-5 4.01 -5 3.02 -5 2 C-6.98 2.33 -8.96 2.66 -11 3 C-8.15930939 0.15930939 -3.81147953 -1.90573977 0 0 Z " fill="#B9A58C" transform="translate(111,76)"/>
<path d="M0 0 C0.33 0.99 0.66 1.98 1 3 C-1.35438733 4.42944945 -2.48032433 5.08661261 -5.25 4.625 C-5.8275 4.41875 -6.405 4.2125 -7 4 C-4.83989616 0.75984424 -3.8842653 0 0 0 Z " fill="#36281E" transform="translate(141,50)"/>
<path d="M0 0 C1.32 1.65 2.64 3.3 4 5 C2.35 5.33 0.7 5.66 -1 6 C-1 6.99 -1 7.98 -1 9 C-1.66 9 -2.32 9 -3 9 C-2.01 6.03 -1.02 3.06 0 0 Z " fill="#D4C0A5" transform="translate(247,237)"/>
<path d="M0 0 C1.32 0 2.64 0 4 0 C3.8125 1.875 3.8125 1.875 3 4 C0.4375 5.25 0.4375 5.25 -2 6 C-1.125 1.125 -1.125 1.125 0 0 Z " fill="#35291E" transform="translate(210,154)"/>
<path d="M0 0 C0.93065133 2.60582371 1.14917407 3.64198224 0.0625 6.25 C-0.4634375 7.11625 -0.4634375 7.11625 -1 8 C-1.99 7.34 -2.98 6.68 -4 6 C-3.67 4.68 -3.34 3.36 -3 2 C-3 2.66 -3 3.32 -3 4 C-2.34 4 -1.68 4 -1 4 C-0.67 2.68 -0.34 1.36 0 0 Z " fill="#B7A18A" transform="translate(221,242)"/>
<path d="M0 0 C0.33 1.32 0.66 2.64 1 4 C0.34 4 -0.32 4 -1 4 C-1.33 5.65 -1.66 7.3 -2 9 C-3.32 8.67 -4.64 8.34 -6 8 C-5.38125 7.236875 -4.7625 6.47375 -4.125 5.6875 C-1.94402948 3.00374191 -1.94402948 3.00374191 0 0 Z " fill="#514738" transform="translate(223,171)"/>
<path d="M0 0 C-2.71182212 2.60334924 -3.89133813 2.99456691 -7.75 3.1875 C-8.8225 3.125625 -9.895 3.06375 -11 3 C-10.67 2.34 -10.34 1.68 -10 1 C-6.6322481 0.06451336 -3.4815554 -0.09947301 0 0 Z " fill="#C4B8A7" transform="translate(194,170)"/>
<path d="M0 0 C5 2 5 2 10 4 C9.67 4.66 9.34 5.32 9 6 C6.03 5.01 3.06 4.02 0 3 C0 2.01 0 1.02 0 0 Z " fill="#D2C1A5" transform="translate(110,156)"/>
<path d="M0 0 C-0.33 0.99 -0.66 1.98 -1 3 C-4 3 -7 3 -10 3 C-9 1 -9 1 -6.125 -0.1875 C-3 -1 -3 -1 0 0 Z " fill="#302924" transform="translate(79,237)"/>
<path d="M0 0 C1.24546405 2.49092811 0.7767578 3.41080733 0 6 C-0.66 6 -1.32 6 -2 6 C-2 5.01 -2 4.02 -2 3 C-3.98 3.99 -3.98 3.99 -6 5 C-5.67 4.01 -5.34 3.02 -5 2 C-2.4375 0.8125 -2.4375 0.8125 0 0 Z " fill="#352A1E" transform="translate(248,231)"/>
<path d="M0 0 C2 0.9375 2 0.9375 4 3 C4.36475845 6.02534949 4.22893297 8.96663814 4 12 C3.67 12 3.34 12 3 12 C1.82923301 8.01939223 0.74250597 4.08378283 0 0 Z " fill="#B9A692" transform="translate(124,230)"/>
<path d="M0 0 C2.64 0.66 5.28 1.32 8 2 C5.35261084 3.4606285 4.10551666 4 1 4 C0.67 2.68 0.34 1.36 0 0 Z " fill="#2A1F14" transform="translate(111,185)"/>
<path d="M0 0 C1.125 3.75 1.125 3.75 0 6 C-0.66 6 -1.32 6 -2 6 C-2.33 7.32 -2.66 8.64 -3 10 C-3.66 10 -4.32 10 -5 10 C-3.66511872 6.40608886 -2.03977277 3.24509304 0 0 Z " fill="#A7917C" transform="translate(211,51)"/>
<path d="M0 0 C1.98 0 3.96 0 6 0 C4.07423885 2.43929746 2.19909405 4.80090595 0 7 C-1.125 2.25 -1.125 2.25 0 0 Z " fill="#30251F" transform="translate(219,31)"/>
<path d="M0 0 C0.99 0.33 1.98 0.66 3 1 C3.6875 3.0625 3.6875 3.0625 4 5 C2.68 4.67 1.36 4.34 0 4 C-0.33 5.32 -0.66 6.64 -1 8 C-1.125 2.25 -1.125 2.25 0 0 Z " fill="#DCC4AA" transform="translate(220,147)"/>
<path d="M0 0 C0.33 0.99 0.66 1.98 1 3 C-1.64 3.66 -4.28 4.32 -7 5 C-6.1875 3.0625 -6.1875 3.0625 -5 1 C-2 0 -2 0 0 0 Z " fill="#342A23" transform="translate(189,17)"/>
<path d="M0 0 C1.10348268 3.31044803 0.99444068 5.65506316 0 9 C-0.99 9.495 -0.99 9.495 -2 10 C-1.125 2.25 -1.125 2.25 0 0 Z " fill="#52453A" transform="translate(228,244)"/>
<path d="M0 0 C0.82638376 2.89234315 1 4.88742431 1 8 C-0.5625 6.75 -0.5625 6.75 -2 5 C-1.74853421 2.86254078 -1.54074221 1.54074221 0 0 Z " fill="#42382A" transform="translate(125,245)"/>
<path d="M0 0 C1.32 0 2.64 0 4 0 C3.34 1.65 2.68 3.3 2 5 C1.01 4.67 0.02 4.34 -1 4 C-0.67 2.68 -0.34 1.36 0 0 Z " fill="#E8D0B8" transform="translate(123,241)"/>
<path d="M0 0 C1.32 0 2.64 0 4 0 C4.66 1.98 5.32 3.96 6 6 C5.01 6 4.02 6 3 6 C2.01 4.02 1.02 2.04 0 0 Z " fill="#DFCCB5" transform="translate(207,228)"/>
<path d="M0 0 C2.31 0 4.62 0 7 0 C7.33 0.99 7.66 1.98 8 3 C5.69 3 3.38 3 1 3 C0.67 2.01 0.34 1.02 0 0 Z " fill="#17120C" transform="translate(114,188)"/>
<path d="M0 0 C0.66 0.33 1.32 0.66 2 1 C0.25 3.0625 0.25 3.0625 -2 5 C-4.25 4.75 -4.25 4.75 -6 4 C-4.02 2.68 -2.04 1.36 0 0 Z " fill="#3E3227" transform="translate(214,182)"/>
<path d="M0 0 C0.33 0 0.66 0 1 0 C1 1.65 1 3.3 1 5 C-0.98 5.33 -2.96 5.66 -5 6 C-3.625 4 -3.625 4 -2 2 C-1.34 2 -0.68 2 0 2 C0 1.34 0 0.68 0 0 Z " fill="#B69F85" transform="translate(213,156)"/>
<path d="M0 0 C1.65 0 3.3 0 5 0 C4 3 4 3 1.9375 4.1875 C1.298125 4.455625 0.65875 4.72375 0 5 C0 3.35 0 1.7 0 0 Z " fill="#DCC5AD" transform="translate(131,57)"/>
</svg>
